<svg width="32" height="32" viewBox="0 0 32 32" fill="none" xmlns="http://www.w3.org/2000/svg">
<g clip-path="url(#clip0_418_263)">
<path d="M15.9993 23.3337C18.9449 23.3337 21.3327 20.9458 21.3327 18.0003C21.3327 15.0548 18.9449 12.667 15.9993 12.667C13.0538 12.667 10.666 15.0548 10.666 18.0003C10.666 20.9458 13.0538 23.3337 15.9993 23.3337Z" fill="#F2F3F8"/>
<path d="M22.6653 1.99902H9.332C4.18667 1.99902 0 6.18702 0 11.3337V24.667C0 29.8124 4.188 33.999 9.33467 33.999H22.668C27.8133 33.999 32 29.811 32 24.6644V11.331C32 6.18569 27.812 1.99902 22.6653 1.99902ZM16 25.999C11.588 25.999 8 22.411 8 17.999C8 13.587 11.588 9.99902 16 9.99902C20.412 9.99902 24 13.587 24 17.999C24 22.411 20.412 25.999 16 25.999ZM25.3333 9.99902C24.5973 9.99902 24 9.40169 24 8.66569C24 7.92969 24.5973 7.33236 25.3333 7.33236C26.0693 7.33236 26.6667 7.92969 26.6667 8.66569C26.6667 9.40169 26.0693 9.99902 25.3333 9.99902Z" fill="#F2F3F8"/>
</g>
<defs>
<clipPath id="clip0_418_263">
<rect width="32" height="32" fill="white" transform="translate(0 -0.000976562)"/>
</clipPath>
</defs>
</svg>
