<?xml version="1.0" encoding="UTF-8"?>
<!DOCTYPE svg PUBLIC "-//W3C//DTD SVG 1.1//EN" "http://www.w3.org/Graphics/SVG/1.1/DTD/svg11.dtd">
<!-- Creator: CorelDRAW 2021 (64-Bit) -->
<svg xmlns="http://www.w3.org/2000/svg" xml:space="preserve" width="2.22858in" height="1.83833in" version="1.1" shape-rendering="geometricPrecision" text-rendering="geometricPrecision" image-rendering="optimizeQuality" fill-rule="evenodd" clip-rule="evenodd"
viewBox="0 0 246.32 203.19"
 xmlns:xlink="http://www.w3.org/1999/xlink"
 xmlns:xodm="http://www.corel.com/coreldraw/odm/2003">
 <g id="Layer_x0020_1">
  <metadata id="CorelCorpID_0Corel-Layer"/>
  <g id="_1451173060464">
   <path fill="#C8DAEA" fill-rule="nonzero" d="M60.07 115.76l27.04 74.85c0,0 3.38,7 7,7 3.62,0 57.47,-56.02 57.47,-56.02l59.88 -115.66 -150.43 70.5 -0.96 19.32z"/>
   <g>
    <path fill="#A9C6D8" fill-rule="nonzero" d="M95.93 134.96l-5.19 55.17c0,0 -2.17,16.91 14.73,0 16.9,-16.9 33.08,-29.94 33.08,-29.94l-42.62 -25.23zm0 0l0 0 0 0z"/>
   </g>
   <path fill="white" fill-rule="nonzero" d="M60.56 118.43l-55.63 -18.13c0,0 -6.65,-2.7 -4.51,-8.81 0.44,-1.26 1.33,-2.33 3.99,-4.18 12.33,-8.59 228.14,-86.16 228.14,-86.16 0,0 6.09,-2.05 9.69,-0.69 1.81,0.56 3.18,2.05 3.58,3.9 0.33,1.36 0.5,2.77 0.5,4.18 0,0.24 -0.01,0.49 -0.02,0.73 -0.02,1.43 -0.19,2.75 -0.32,4.83 -1.31,21.21 -40.65,179.49 -40.65,179.49 0,0 -2.35,9.26 -10.79,9.58 -0.17,0 -0.33,0.01 -0.5,0.01 -4.02,0 -7.88,-1.57 -10.76,-4.36 -16.55,-14.23 -73.74,-52.67 -86.37,-61.12 -0.58,-0.39 -0.95,-1.02 -1.04,-1.71 -0.18,-0.89 0.79,-1.99 0.79,-1.99 0,0 99.58,-88.52 102.23,-97.81 0.2,-0.72 -0.57,-1.08 -1.61,-0.76 -6.61,2.43 -121.27,74.84 -133.92,82.83 -0.57,0.17 -1.17,0.26 -1.77,0.26 -0.35,0 -0.7,-0.03 -1.05,-0.09z"/>
  </g>
 </g>
</svg>
