<svg width="32" height="32" viewBox="0 0 32 32" fill="none" xmlns="http://www.w3.org/2000/svg">
<g clip-path="url(#clip0_418_274)">
<path d="M19.8591 24.2133V27.9812C19.8591 28.7788 19.627 29.1776 19.1627 29.1776C18.8889 29.1776 18.621 29.0466 18.3591 28.7847V23.4097C18.621 23.1478 18.8889 23.0169 19.1627 23.0169C19.627 23.0169 19.8591 23.4157 19.8591 24.2133ZM25.8948 24.2312V25.0526H24.2877V24.2312C24.2877 23.4216 24.5555 23.0169 25.0912 23.0169C25.627 23.0169 25.8948 23.4216 25.8948 24.2312ZM8.64481 20.3383H10.5555V18.6597H4.9841V20.3383H6.8591V30.499H8.64481V20.3383ZM13.7877 30.499H15.377V21.6776H13.7877V28.4276C13.4305 28.9276 13.0912 29.1776 12.7698 29.1776C12.5555 29.1776 12.4305 29.0526 12.3948 28.8026C12.3829 28.7669 12.377 28.5585 12.377 28.1776V21.6776H10.7877V28.6597C10.7877 29.2431 10.8353 29.6776 10.9305 29.9633C11.0734 30.4038 11.4186 30.624 11.9662 30.624C12.5377 30.624 13.1448 30.2609 13.7877 29.5347V30.499ZM21.4484 27.8562V24.3383C21.4484 23.4693 21.3948 22.88 21.2877 22.5705C21.0853 21.9038 20.6627 21.5705 20.0198 21.5705C19.4246 21.5705 18.871 21.8919 18.3591 22.5347V18.6597H16.7698V30.499H18.3591V29.6419C18.8948 30.2966 19.4484 30.624 20.0198 30.624C20.6627 30.624 21.0853 30.2966 21.2877 29.6419C21.3948 29.3205 21.4484 28.7252 21.4484 27.8562ZM27.4841 27.6776V27.4455H25.8591C25.8591 28.0526 25.8472 28.4157 25.8234 28.5347C25.74 28.9633 25.502 29.1776 25.1091 29.1776C24.5615 29.1776 24.2877 28.7669 24.2877 27.9455V26.3919H27.4841V24.5526C27.4841 23.6121 27.3234 22.9216 27.002 22.4812C26.5377 21.874 25.9067 21.5705 25.1091 21.5705C24.2996 21.5705 23.6627 21.874 23.1984 22.4812C22.865 22.9216 22.6984 23.6121 22.6984 24.5526V27.6419C22.6984 28.5824 22.871 29.2728 23.2162 29.7133C23.6805 30.3205 24.3234 30.624 25.1448 30.624C26.002 30.624 26.6448 30.3085 27.0734 29.6776C27.2877 29.3562 27.4127 29.0347 27.4484 28.7133C27.4722 28.6062 27.4841 28.2609 27.4841 27.6776ZM16.627 11.374V7.62402C16.627 6.8026 16.371 6.39188 15.8591 6.39188C15.3472 6.39188 15.0912 6.8026 15.0912 7.62402V11.374C15.0912 12.2074 15.3472 12.624 15.8591 12.624C16.371 12.624 16.627 12.2074 16.627 11.374ZM29.4662 24.7847C29.4662 27.5705 29.3115 29.6538 29.002 31.0347C28.8353 31.7371 28.49 32.3264 27.9662 32.8026C27.4424 33.2788 26.8353 33.5526 26.1448 33.624C23.9543 33.874 20.6508 33.999 16.2341 33.999C11.8174 33.999 8.51386 33.874 6.32338 33.624C5.63291 33.5526 5.02279 33.2788 4.49302 32.8026C3.96326 32.3264 3.621 31.7371 3.46624 31.0347C3.15672 29.7014 3.00195 27.6181 3.00195 24.7847C3.00195 21.999 3.15672 19.9157 3.46624 18.5347C3.63291 17.8324 3.97814 17.2431 4.50195 16.7669C5.02576 16.2907 5.63886 16.0109 6.34124 15.9276C8.51981 15.6895 11.8174 15.5705 16.2341 15.5705C20.6508 15.5705 23.9543 15.6895 26.1448 15.9276C26.8353 16.0109 27.4454 16.2907 27.9752 16.7669C28.5049 17.2431 28.8472 17.8324 29.002 18.5347C29.3115 19.8681 29.4662 21.9514 29.4662 24.7847ZM11.6448 1.99902H13.4662L11.3055 9.12402V13.9633H9.51981V9.12402C9.35314 8.24307 8.99005 6.98117 8.43052 5.33831C7.99005 4.11212 7.60314 2.99902 7.26981 1.99902H9.16267L10.4305 6.69545L11.6448 1.99902ZM18.252 7.94545V11.0705C18.252 12.0347 18.0853 12.7371 17.752 13.1776C17.2996 13.7847 16.6686 14.0883 15.8591 14.0883C15.0615 14.0883 14.4365 13.7847 13.9841 13.1776C13.6508 12.7252 13.4841 12.0228 13.4841 11.0705V7.94545C13.4841 6.99307 13.6508 6.29664 13.9841 5.85617C14.4365 5.24902 15.0615 4.94545 15.8591 4.94545C16.6686 4.94545 17.2996 5.24902 17.752 5.85617C18.0853 6.29664 18.252 6.99307 18.252 7.94545ZM24.2341 5.05259V13.9633H22.6091V12.9812C21.9781 13.7193 21.365 14.0883 20.7698 14.0883C20.2222 14.0883 19.871 13.8681 19.7162 13.4276C19.621 13.1419 19.5734 12.6955 19.5734 12.0883V5.05259H21.1984V11.6062C21.1984 11.999 21.2043 12.2074 21.2162 12.2312C21.252 12.4931 21.377 12.624 21.5912 12.624C21.9127 12.624 22.252 12.3681 22.6091 11.8562V5.05259H24.2341Z" fill="#F2F3F8"/>
</g>
<defs>
<clipPath id="clip0_418_274">
<rect width="32" height="32" fill="white" transform="translate(0 -0.000976562)"/>
</clipPath>
</defs>
</svg>
