<svg width="32" height="32" viewBox="0 0 32 32" fill="none" xmlns="http://www.w3.org/2000/svg">
<g clip-path="url(#clip0_418_271)">
<path d="M32.0625 7.95838C30.8861 8.46108 29.6201 8.80017 28.2917 8.95191C29.648 8.17133 30.688 6.93488 31.1784 5.45988C29.9098 6.18364 28.5054 6.70882 27.0095 6.99233C25.8123 5.76587 24.1059 4.99902 22.2175 4.99902C18.5923 4.99902 15.6529 7.82475 15.6529 11.3105C15.6529 11.8045 15.7108 12.286 15.8231 12.7487C10.3667 12.4852 5.52867 9.97292 2.29054 6.15429C1.72541 7.086 1.40192 8.17008 1.40192 9.32784C1.40192 11.5172 2.56076 13.4493 4.32241 14.5809C3.24672 14.5478 2.23403 14.2636 1.34866 13.7909C1.34801 13.8172 1.34801 13.844 1.34801 13.8709C1.34801 16.9283 3.61113 19.4786 6.61476 20.0593C6.06392 20.203 5.48385 20.2804 4.88494 20.2804C4.46142 20.2804 4.05024 20.2411 3.64945 20.1668C4.48545 22.674 6.90967 24.4993 9.78209 24.5499C7.53521 26.2428 4.70501 27.252 1.62862 27.252C1.09922 27.252 0.576314 27.222 0.0625 27.1633C2.9687 28.9549 6.41924 29.999 10.1264 29.999C22.2026 29.999 28.8055 20.3822 28.8055 12.0418C28.8055 11.7683 28.7997 11.4954 28.7873 11.2244C30.0696 10.3364 31.183 9.22418 32.0625 7.95838Z" fill="#F2F3F8"/>
</g>
<defs>
<clipPath id="clip0_418_271">
<rect width="32" height="32" fill="white" transform="translate(0 -0.000976562)"/>
</clipPath>
</defs>
</svg>
