<?xml version="1.0" encoding="UTF-8"?>
<!DOCTYPE svg PUBLIC "-//W3C//DTD SVG 1.1//EN" "http://www.w3.org/Graphics/SVG/1.1/DTD/svg11.dtd">
<!-- Creator: CorelDRAW 2021 (64-Bit) -->
<svg xmlns="http://www.w3.org/2000/svg" xml:space="preserve" width="0.752248in" height="0.793827in" version="1.1" shape-rendering="geometricPrecision" text-rendering="geometricPrecision" image-rendering="optimizeQuality" fill-rule="evenodd" clip-rule="evenodd"
viewBox="0 0 371.42 391.95"
 xmlns:xlink="http://www.w3.org/1999/xlink"
 xmlns:xodm="http://www.corel.com/coreldraw/odm/2003">
 <g id="Layer_x0020_1">
  <metadata id="CorelCorpID_0Corel-Layer"/>
  <path fill="#FEFEFE" fill-rule="nonzero" d="M234.03 157.91c0.14,2.73 -1.96,5.05 -4.68,5.19 -2.73,0.14 -5.05,-1.96 -5.19,-4.68 -0.45,-8.54 -2.7,-14.94 -6.79,-19.2 -4.05,-4.21 -10.15,-6.53 -18.35,-6.97 -2.73,-0.14 -4.82,-2.46 -4.68,-5.19 0.14,-2.73 2.46,-4.82 5.19,-4.68 10.82,0.58 19.12,3.92 24.98,10 5.8,6.03 8.96,14.55 9.54,25.55zm-33.74 66.6c0,0 7.2,0.52 10.8,-4.12l7.2 -9.26c3.6,-4.63 11.83,-7.72 20.57,-3.08 4.63,2.57 12.86,7.72 18,11.83 5.66,4.12 16.97,13.37 16.97,13.37 5.66,4.63 6.69,11.32 3.08,18.52 -3.6,6.69 -8.74,12.86 -15.43,18.52 -5.14,4.63 -10.29,6.69 -15.43,7.72l-2.06 -0c-2.06,0 -4.63,-0.52 -6.69,-1.03 -7.72,-2.06 -20.57,-7.72 -42.69,-19.54 -13.89,-7.72 -25.72,-15.94 -35.49,-23.66 -5.14,-4.12 -10.8,-8.74 -15.94,-14.4l-2.06 -2.06c-5.66,-5.66 -10.29,-10.8 -14.4,-15.94 -7.72,-9.77 -15.94,-21.6 -23.66,-35.49 -11.83,-21.6 -17.49,-34.46 -19.54,-42.69 -0.52,-2.06 -1.03,-4.12 -1.03,-6.69l0 -2.06c0.52,-5.14 3.08,-10.29 7.72,-15.43 5.66,-6.17 11.83,-11.32 18.52,-15.43 7.2,-3.6 13.89,-2.57 18.52,3.08 0,0 9.26,11.32 13.37,16.97 3.6,5.14 8.74,13.37 11.83,18 4.63,8.23 1.54,16.97 -2.57,20.57l-9.26 7.2c-4.63,3.6 -4.12,10.8 -4.12,10.8 0,0 12.86,50.92 63.77,64.29l-0 -0zm129.6 -186.18c-9.77,-8.74 -48.86,-37.54 -136.8,-38.06 0,0 -103.37,-6.17 -153.77,40.12 -28.29,28.29 -38.06,68.92 -39.09,119.83 -1.03,50.92 -2.57,146.06 89.49,172.29l0 39.6c0,0 -0.52,15.94 9.77,19.03 12.86,4.12 20.06,-8.23 32.4,-21.09 6.69,-7.2 15.94,-17.49 22.63,-25.72 62.74,5.14 111.09,-6.69 116.75,-8.74 12.86,-4.12 84.35,-13.37 96.17,-108.52 12.34,-98.75 -5.14,-160.97 -37.54,-188.75l0 -0zm10.8 181.03c-9.77,79.72 -67.89,84.86 -78.69,87.95 -4.63,1.54 -46.8,11.83 -100.29,8.74 0,0 -39.6,47.83 -52.46,60.69 -2.06,2.06 -4.12,2.57 -5.66,2.57 -2.06,-0.52 -2.57,-3.08 -2.57,-6.69 0,-5.14 0.52,-65.83 0.52,-65.83 -77.66,-21.6 -73.03,-102.86 -72.52,-145.55 1.03,-42.69 8.74,-77.14 32.4,-100.8 42.69,-38.57 130.63,-32.92 130.63,-32.92 74.06,0.52 109.55,22.63 117.77,30.34 26.74,23.66 40.63,79.72 30.86,161.49l0 -0zm-55.22 -42.69c0,2.74 -2.22,4.95 -4.95,4.95 -2.74,0 -4.95,-2.22 -4.95,-4.95 0,-14.97 -2.3,-28.31 -6.77,-40.01 -4.5,-11.78 -11.21,-21.95 -20.01,-30.51 -8.81,-8.57 -18.73,-15.05 -29.74,-19.37 -10.94,-4.3 -23.03,-6.48 -36.25,-6.48 -2.74,0 -4.95,-2.22 -4.95,-4.95 0,-2.74 2.22,-4.95 4.95,-4.95 14.44,0 27.73,2.41 39.85,7.17 12.24,4.81 23.25,11.99 33.02,21.5 9.85,9.58 17.36,20.94 22.37,34.07 4.9,12.84 7.43,27.36 7.43,43.54zm-25.74 -10.15c-0.07,2.73 -2.35,4.87 -5.07,4.8 -2.73,-0.07 -4.87,-2.35 -4.8,-5.07 0.24,-8.29 -0.93,-15.99 -3.39,-22.97 -2.47,-7.03 -6.27,-13.34 -11.27,-18.82l-0.04 -0.04c-5.18,-5.63 -11.3,-9.98 -18.36,-13.09 -7.19,-3.18 -15.41,-5.1 -24.62,-5.83 -2.73,-0.21 -4.76,-2.6 -4.55,-5.32 0.21,-2.73 2.6,-4.76 5.32,-4.55 10.33,0.81 19.61,3.01 27.84,6.64 8.31,3.67 15.52,8.79 21.63,15.43l0.1 0.1c5.89,6.45 10.37,13.89 13.29,22.19 2.85,8.09 4.2,16.98 3.93,26.54z"/>
 </g>
</svg>
