<?xml version="1.0" encoding="UTF-8"?>
<!DOCTYPE svg PUBLIC "-//W3C//DTD SVG 1.1//EN" "http://www.w3.org/Graphics/SVG/1.1/DTD/svg11.dtd">
<!-- Creator: CorelDRAW 2021 (64-Bit) -->
<svg xmlns="http://www.w3.org/2000/svg" xml:space="preserve" width="2.01887in" height="2.13048in" version="1.1" shape-rendering="geometricPrecision" text-rendering="geometricPrecision" image-rendering="optimizeQuality" fill-rule="evenodd" clip-rule="evenodd"
viewBox="0 0 429.67 453.42"
 xmlns:xlink="http://www.w3.org/1999/xlink"
 xmlns:xodm="http://www.corel.com/coreldraw/odm/2003">
 <g id="Layer_x0020_1">
  <metadata id="CorelCorpID_0Corel-Layer"/>
  <g id="_1451428611568">
   <path id="path72" fill="white" fill-rule="nonzero" d="M381.64 44.34c-11.3,-10.12 -56.52,-43.43 -158.26,-44.03 0,0 -119.59,-7.14 -177.89,46.41 -32.72,32.72 -44.03,79.73 -45.22,138.63 -1.19,58.9 -2.97,168.97 103.52,199.31l0 45.81c0,0 -0.6,18.44 11.3,22.01 14.87,4.76 23.2,-9.52 37.48,-24.39 7.73,-8.33 18.44,-20.23 26.18,-29.75 72.59,5.95 128.51,-7.73 135.06,-10.12 14.87,-4.76 97.57,-15.47 111.26,-125.54 14.28,-114.23 -5.95,-186.22 -43.43,-218.35l0 -0zm12.49 209.43c-11.3,92.22 -78.54,98.17 -91.03,101.74 -5.35,1.79 -54.14,13.68 -116.02,10.12 0,0 -45.81,55.33 -60.69,70.21 -2.38,2.38 -4.76,2.97 -6.54,2.97 -2.38,-0.6 -2.98,-3.57 -2.98,-7.73 0,-5.95 0.6,-76.15 0.6,-76.15 -89.84,-24.99 -84.48,-118.99 -83.89,-168.37 1.19,-49.38 10.11,-89.24 37.48,-116.61 49.38,-44.62 151.12,-38.08 151.12,-38.08 85.68,0.6 126.73,26.18 136.25,35.1 30.94,27.37 47,92.22 35.7,186.82l0 -0z" inkscape:connector-curvature="0"/>
   <path fill="white" fill-rule="nonzero" d="M270.74 182.68c0.16,3.15 -2.27,5.84 -5.42,6 -3.15,0.16 -5.84,-2.27 -6,-5.42 -0.52,-9.88 -3.12,-17.29 -7.85,-22.21 -4.68,-4.86 -11.74,-7.56 -21.23,-8.07 -3.15,-0.16 -5.58,-2.85 -5.42,-6 0.16,-3.15 2.85,-5.58 6,-5.42 12.52,0.68 22.12,4.53 28.89,11.56 6.71,6.98 10.36,16.83 11.04,29.55z"/>
   <path fill="white" fill-rule="nonzero" d="M300.48 192.65c-0.09,3.15 -2.71,5.64 -5.87,5.55 -3.15,-0.09 -5.64,-2.71 -5.55,-5.87 0.27,-9.6 -1.08,-18.5 -3.92,-26.58 -2.86,-8.13 -7.26,-15.43 -13.04,-21.77l-0.04 -0.05c-5.99,-6.51 -13.07,-11.54 -21.24,-15.15 -8.32,-3.68 -17.82,-5.9 -28.48,-6.74 -3.15,-0.25 -5.51,-3 -5.26,-6.16 0.25,-3.15 3,-5.51 6.16,-5.26 11.95,0.94 22.68,3.48 32.2,7.68 9.61,4.24 17.95,10.17 25.02,17.86l0.11 0.12c6.81,7.46 11.99,16.07 15.37,25.67 3.3,9.36 4.86,19.65 4.55,30.7z"/>
   <path fill="white" fill-rule="nonzero" d="M330.26 204.39c0,3.16 -2.57,5.73 -5.73,5.73 -3.16,0 -5.73,-2.57 -5.73,-5.73 0,-17.32 -2.66,-32.75 -7.83,-46.29 -5.21,-13.63 -12.97,-25.4 -23.15,-35.29 -10.19,-9.91 -21.66,-17.41 -34.4,-22.4 -12.66,-4.97 -26.64,-7.49 -41.94,-7.49 -3.16,0 -5.73,-2.57 -5.73,-5.73 0,-3.16 2.57,-5.73 5.73,-5.73 16.71,0 32.08,2.79 46.1,8.3 14.16,5.56 26.9,13.87 38.2,24.87 11.4,11.08 20.08,24.22 25.88,39.41 5.67,14.86 8.59,31.65 8.59,50.36z"/>
   <path id="path80" fill="white" fill-rule="nonzero" d="M231.71 259.72c0,0 8.33,0.6 12.49,-4.76l8.33 -10.71c4.17,-5.36 13.68,-8.93 23.8,-3.57 5.35,2.98 14.87,8.93 20.82,13.68 6.54,4.76 19.63,15.47 19.63,15.47 6.54,5.35 7.73,13.09 3.57,21.42 -4.17,7.73 -10.12,14.87 -17.85,21.42 -5.95,5.35 -11.9,7.73 -17.85,8.93l-2.38 -0c-2.38,0 -5.35,-0.6 -7.73,-1.19 -8.93,-2.38 -23.8,-8.93 -49.38,-22.61 -16.06,-8.93 -29.75,-18.44 -41.05,-27.37 -5.95,-4.76 -12.49,-10.11 -18.44,-16.66l-2.38 -2.38c-6.54,-6.54 -11.9,-12.49 -16.66,-18.44 -8.93,-11.3 -18.44,-24.99 -27.37,-41.05 -13.68,-24.99 -20.23,-39.86 -22.61,-49.38 -0.6,-2.38 -1.19,-4.76 -1.19,-7.73l0 -2.38c0.6,-5.95 3.57,-11.9 8.93,-17.85 6.54,-7.14 13.68,-13.09 21.42,-17.85 8.33,-4.16 16.06,-2.98 21.42,3.57 0,0 10.71,13.09 15.47,19.63 4.16,5.95 10.12,15.47 13.68,20.82 5.35,9.52 1.79,19.63 -2.98,23.8l-10.71 8.33c-5.35,4.17 -4.76,12.49 -4.76,12.49 0,0 14.87,58.9 73.78,74.37l-0 -0z" inkscape:connector-curvature="0"/>
  </g>
 </g>
</svg>
