<?xml version="1.0" encoding="UTF-8"?>
<!DOCTYPE svg PUBLIC "-//W3C//DTD SVG 1.1//EN" "http://www.w3.org/Graphics/SVG/1.1/DTD/svg11.dtd">
<!-- Creator: CorelDRAW 2021 (64-Bit) -->
<svg xmlns="http://www.w3.org/2000/svg" xml:space="preserve" width="2.031in" height="2.02601in" version="1.1" shape-rendering="geometricPrecision" text-rendering="geometricPrecision" image-rendering="optimizeQuality" fill-rule="evenodd" clip-rule="evenodd"
viewBox="0 0 284.39 283.69"
 xmlns:xlink="http://www.w3.org/1999/xlink"
 xmlns:xodm="http://www.corel.com/coreldraw/odm/2003">
 <g id="Layer_x0020_1">
  <metadata id="CorelCorpID_0Corel-Layer"/>
  <g id="_1451285688880">
   <path fill="white" d="M-0 283.69c7.7,-24.87 16.63,-48.51 24.79,-72.92 -54.11,-94.63 12.85,-201.16 103.55,-210.01 85.63,-8.36 155.84,53.15 156.05,137.09 0.22,88.57 -85.68,162.94 -182.3,132.72 -7.29,-2.28 -16.31,-9.71 -24.79,-10.21 -11.86,-0.7 -27.4,7.82 -39.38,11.67 -13.13,4.22 -24.54,8.45 -37.92,11.67zm80.21 -49.59c78.03,47.36 171.46,-5.76 179.39,-83.13 7.17,-70.04 -48.75,-132.36 -123.97,-126.88 -85.87,6.25 -137.45,108.75 -84.59,183.76 -4.68,12.82 -9.06,25.95 -13.13,39.38 14.33,-4.15 27.53,-9.42 42.29,-13.13z"/>
   <path fill="white" d="M110.84 72.22c8.21,17.17 20.9,42.56 0,53.96 10.62,22.44 28.17,37.95 51.04,48.13 7.61,-5.03 12.6,-12.68 18.96,-18.96 13.28,5.19 25.69,11.25 36.46,18.96 1.11,25.09 -20.04,34.37 -37.92,33.54 -37.73,-1.74 -89.58,-49.4 -102.09,-84.59 -7.42,-20.88 1.11,-60.82 33.54,-51.04z"/>
  </g>
 </g>
</svg>
