<svg width="35" height="35" viewBox="0 0 35 35" fill="none" xmlns="http://www.w3.org/2000/svg">
<path d="M17.027 0C7.62322 0 0 7.6377 0 17.0588C0 26.4799 7.62347 34.1176 17.027 34.1176C26.4308 34.1176 34.0541 26.4799 34.0541 17.0588C34.0541 7.6377 26.4306 0 17.027 0ZM16.9061 21.5635L12.9504 26.2386C12.8209 26.3924 12.6313 26.4814 12.4302 26.4823H12.4254C12.2268 26.4823 12.0372 26.3963 11.9067 26.2458L8.26578 22.0626C8.01625 21.7751 8.04647 21.3404 8.33249 21.09C8.61945 20.84 9.05327 20.8702 9.30328 21.1568L11.7372 23.954V12.7523C11.7372 12.372 12.0453 12.0629 12.4253 12.0629C12.8049 12.0629 13.1135 12.3715 13.1135 12.7523V23.9145L15.8565 20.6721C16.1012 20.3812 16.5355 20.3447 16.8259 20.5923C17.1157 20.8385 17.1518 21.2731 16.9061 21.5635ZM25.7138 13.2783C25.5843 13.3884 25.4269 13.4418 25.2695 13.4418C25.0742 13.4418 24.8808 13.3591 24.7445 13.198L22.0015 9.95659L22.002 21.1184C22.002 21.4987 21.6939 21.8079 21.3138 21.8079C20.9342 21.8079 20.6256 21.4992 20.6256 21.1184L20.6261 9.91672L18.1922 12.7139C17.9427 13.0014 17.5079 13.0308 17.2214 12.7808C16.9354 12.5308 16.9057 12.0952 17.1547 11.8082L20.7956 7.62493C20.9276 7.47348 21.1066 7.39128 21.3192 7.38839C21.5202 7.38983 21.7093 7.47877 21.8394 7.63215L25.795 12.3072C26.0398 12.5971 26.0037 13.0322 25.7138 13.2783Z" fill="#9B9B9B"/>
</svg>
