<svg width="30" height="28" viewBox="0 0 30 28" fill="none" xmlns="http://www.w3.org/2000/svg">
<path d="M24.215 21.6587C25.2009 19.9556 27.7942 21.4575 26.8075 23.1606L24.4452 27.2526C24.1516 27.758 23.6081 28.0283 23.0618 27.9976H8.71309C8.142 27.9976 7.64649 27.6777 7.39381 27.2069L0.199184 14.7454C-0.0763213 14.2657 -0.057036 13.6969 0.201545 13.2502L7.41703 0.747402C7.70946 0.242046 8.253 -0.0283428 8.79968 0.00235642H23.1488C23.7199 0.00235642 24.2158 0.322336 24.4681 0.793057L26.8075 4.84574C27.7867 6.54837 25.1934 8.03846 24.215 6.33544L22.2861 2.99395H9.57936L3.22345 14.0031L9.57621 25.006H22.2821L24.215 21.6587ZM10.2575 21.5268C10.25 21.4941 7.57564 10.4507 19.7931 9.82885V7.85584C19.7931 7.48587 20.2072 7.27491 20.5055 7.47682L29.5106 12.6756C29.8196 12.8543 29.8089 13.2994 29.5043 13.4683L20.4787 18.6797C20.1721 18.8576 19.7939 18.6312 19.7939 18.2849L19.7931 16.2954C15.4701 16.3603 13.3518 17.3679 11.5882 21.5626C11.2938 22.2691 10.4086 22.1872 10.2575 21.5268Z" fill="#3F3F3F"/>
</svg>
