<svg width="650" height="437" viewBox="0 0 650 437" fill="none" xmlns="http://www.w3.org/2000/svg">
<path d="M1 80.747L81.2164 1.47559H336.145L368.229 33.1855H623.151L649 58.7275V309.748H375.359L323.661 360.832H81.2164L25.9541 306.219H1V80.747Z" fill="url(#paint0_linear_121_2)" stroke="#9B9B9B" stroke-width="2" stroke-miterlimit="2.61313"/>
<path d="M402.701 24.2327L378.177 0H358.032L382.556 24.2327H402.701Z" fill="#FFE500"/>
<path d="M436.971 24.2327L412.454 0H392.31L416.833 24.2327H436.971Z" fill="#FFE500"/>
<path d="M471.246 24.2327L446.722 0H426.577L451.101 24.2327H471.246Z" fill="#FFE500"/>
<path d="M505.518 24.2327L480.995 0H460.85L485.373 24.2327H505.518Z" fill="#FFE500"/>
<path d="M539.787 24.2327L515.263 0H495.125L519.642 24.2327H539.787Z" fill="#FFE500"/>
<path d="M574.057 24.2327L549.534 0H529.396L553.912 24.2327H574.057Z" fill="#FFE500"/>
<path d="M341.152 344.954L375.768 310.75H392.838L357.975 345.199L341.152 344.954Z" fill="#9B9B9B" stroke="#9B9B9B" stroke-width="2"/>
<path d="M10.7031 57.271L58.4616 10.0791H71.0929L10.7031 69.7462V57.271Z" fill="#9B9B9B" stroke="#9B9B9B" stroke-width="2"/>
<mask id="mask0_121_2" style="mask-type:luminance" maskUnits="userSpaceOnUse" x="435" y="132" width="202" height="165">
<path d="M635.762 133.998H436.815V295.512H635.762V133.998Z" fill="url(#paint1_linear_121_2)" stroke="#0556CC" stroke-width="2" stroke-miterlimit="10"/>
</mask>
<g mask="url(#mask0_121_2)">
<path d="M635.608 134.15V295.358H436.971" stroke="#59595B" stroke-width="2" stroke-miterlimit="10"/>
</g>
<path d="M627.785 228.23V108.516" stroke="#59595B" stroke-width="2" stroke-miterlimit="10"/>
<path d="M84.7334 346.203L32.0405 294.135H14.1152V86.8545" stroke="#9B9B9B" stroke-width="2" stroke-miterlimit="10"/>
<g style="mix-blend-mode:screen">
<path d="M219.662 324.555V333.217H219.943C222.861 333.542 225.643 334.623 228.015 336.352C230.386 338.082 232.266 340.4 233.467 343.079C234.669 345.757 235.15 348.702 234.865 351.624C234.579 354.545 233.536 357.342 231.839 359.737L231.637 360.018L231.933 360.192C235.098 362.09 237.554 364.973 238.925 368.4C240.296 371.826 240.507 375.608 239.524 379.166C238.542 382.723 236.42 385.861 233.485 388.099C230.549 390.336 226.962 391.55 223.271 391.554H219.662V400.151H212.508V391.598H206.575V400.195H199.422V391.598H186.162V382.496H195.423V342.254H186.162V333.152H199.422V324.555H206.575V333.152H212.508V324.555H219.662ZM204.504 357.824H218.038C220.061 357.762 221.981 356.915 223.391 355.462C224.801 354.009 225.589 352.064 225.589 350.039C225.589 348.015 224.801 346.07 223.391 344.616C221.981 343.163 220.061 342.316 218.038 342.254H204.525V357.824M204.525 382.496H223.249C225.273 382.434 227.193 381.587 228.602 380.134C230.012 378.68 230.8 376.735 230.8 374.711C230.8 372.686 230.012 370.741 228.602 369.288C227.193 367.835 225.273 366.988 223.249 366.926H204.525V382.496ZM212.191 324.238V332.842H206.864V324.238H199.104V332.842H185.845V342.572H195.106V382.178H185.845V391.908H199.104V400.512H206.864V391.908H212.162V400.512H219.95V391.908H223.22C226.987 391.923 230.654 390.7 233.658 388.428C236.662 386.157 238.837 382.961 239.849 379.333C240.86 375.705 240.653 371.845 239.258 368.347C237.863 364.848 235.358 361.904 232.127 359.968C233.859 357.529 234.923 354.68 235.215 351.704C235.508 348.727 235.018 345.726 233.794 342.997C232.571 340.268 230.656 337.905 228.239 336.143C225.823 334.381 222.988 333.28 220.015 332.95V324.238H212.191ZM204.821 357.506V342.572H218.045C219.045 342.541 220.041 342.711 220.974 343.072C221.907 343.434 222.758 343.979 223.477 344.675C224.195 345.372 224.767 346.205 225.157 347.127C225.547 348.048 225.748 349.039 225.748 350.039C225.748 351.04 225.547 352.03 225.157 352.952C224.767 353.873 224.195 354.707 223.477 355.403C222.758 356.1 221.907 356.645 220.974 357.006C220.041 357.367 219.045 357.537 218.045 357.506H204.821ZM204.821 382.178V367.251H223.249C224.249 367.22 225.245 367.39 226.179 367.751C227.112 368.112 227.963 368.658 228.681 369.354C229.4 370.05 229.971 370.884 230.361 371.806C230.751 372.727 230.952 373.717 230.952 374.718C230.952 375.719 230.751 376.709 230.361 377.631C229.971 378.552 229.4 379.386 228.681 380.082C227.963 380.779 227.112 381.324 226.179 381.685C225.245 382.046 224.249 382.216 223.249 382.185L204.821 382.178Z" fill="#D3D3D3"/>
<path d="M154.894 348.693C154.988 348.354 155.089 348.015 155.204 347.69L156.648 343.215C157.117 342.009 157.478 341.222 157.485 341.215L157.528 341.121H157.622C157.622 341.121 159.297 340.631 160.892 340.255C161.693 340.053 162.495 339.88 163.058 339.757C163.058 339.757 163.649 339.634 163.974 339.591L165.194 337.426C165.338 337.18 165.476 336.92 165.62 336.653C165.887 336.17 166.183 335.621 166.529 335.087L169.179 331.283C169.377 331.013 169.589 330.752 169.814 330.503C169.929 330.366 170.045 330.236 170.153 330.099L171.893 328.057C172.291 327.543 172.728 327.061 173.199 326.613L173.661 326.108L173.971 326.425L173.459 326.923C173.01 327.34 172.595 327.791 172.217 328.273L170.478 330.316C170.37 330.453 170.247 330.59 170.124 330.727C170.001 330.864 169.705 331.204 169.525 331.449L166.883 335.253C166.544 335.766 166.262 336.278 165.995 336.783L165.562 337.563L164.205 339.988H164.083C163.96 339.988 163.599 340.053 163.13 340.154C162.538 340.284 161.744 340.457 160.964 340.652C159.607 340.977 158.2 341.374 157.817 341.49C157.716 341.728 157.413 342.413 157.038 343.352L155.594 347.82C155.327 348.604 155.119 349.408 154.973 350.224L154.107 354.381C154.215 354.573 154.333 354.758 154.461 354.937L155.399 356.316L156.843 358.301L156.626 360.314C156.576 361.036 156.576 361.924 156.576 362.87C156.576 363.418 156.576 363.989 156.576 364.552C156.544 365.687 156.599 366.824 156.742 367.951C156.742 368.247 156.799 368.522 156.821 368.781L157.009 370.795L156.612 371.351C156.43 371.582 156.261 371.823 156.106 372.073L155.385 373.286L155.811 375.451C155.861 375.682 155.912 375.935 155.955 376.173C156.038 376.69 156.156 377.201 156.309 377.703L157.081 380.302C157.182 380.605 157.276 380.922 157.362 381.24C157.51 381.79 157.686 382.332 157.889 382.864L159.679 387.26L159.463 387.931L159.138 389.223L158.705 391.085L160.149 393.778L161.881 396.449C162.061 396.716 162.242 396.997 162.422 397.279C162.882 398.037 163.396 398.76 163.96 399.444L164.458 400.072C165.666 401.692 166.983 403.228 168.399 404.67L170.521 406.836C170.761 406.861 171.002 406.873 171.243 406.872H173.112C174.433 406.872 175.725 406.872 175.74 406.872H175.826L177.22 408.063C177.746 408.46 178.425 408.922 179.14 409.42L180.352 410.264C180.562 410.401 180.764 410.546 180.966 410.69C181.334 410.95 181.688 411.195 182.041 411.412L185.051 413.086L187.311 412.531L189.707 411.715L191.078 412.314C191.338 412.408 191.62 412.538 191.93 412.682C192.577 412.992 193.248 413.248 193.937 413.447L198.268 414.819L198.131 415.245L193.8 413.88C193.088 413.676 192.395 413.41 191.728 413.086C191.432 412.949 191.151 412.827 190.898 412.726L189.671 412.191L187.376 413.043L184.929 413.649L181.76 411.881C181.384 411.657 181.038 411.39 180.655 411.159L180.042 410.741L178.844 409.838C178.122 409.347 177.443 408.878 176.902 408.474L175.624 407.384C175.314 407.384 174.181 407.42 173.062 407.384H171.2C170.908 407.386 170.616 407.369 170.326 407.334H170.254L168.024 405.031C166.598 403.573 165.269 402.022 164.046 400.39L163.563 399.776C162.986 399.078 162.46 398.34 161.989 397.567C161.809 397.286 161.636 397.012 161.455 396.745L159.708 394.052L158.2 391.165L159.001 387.837L159.174 387.303L157.449 383.131C157.237 382.586 157.057 382.029 156.908 381.464C156.814 381.153 156.727 380.843 156.626 380.533L155.854 377.934C155.696 377.416 155.575 376.888 155.493 376.353C155.442 376.093 155.399 375.848 155.341 375.631L154.894 373.242L155.717 371.878C155.883 371.596 156.085 371.322 156.244 371.098L156.547 370.673L156.374 368.832C156.374 368.572 156.323 368.291 156.294 368.002C156.155 366.857 156.1 365.704 156.128 364.552C156.128 363.989 156.128 363.426 156.128 362.877C156.128 361.924 156.128 361.022 156.186 360.286L156.381 358.431L155.045 356.575L154.107 355.197C153.956 354.983 153.816 354.761 153.688 354.533L153.652 354.461L154.555 350.13C154.641 349.675 154.749 349.206 154.894 348.693Z" fill="#D3D3D3"/>
<path d="M198.202 414.891L203.392 415.98C203.977 416.053 204.605 416.118 205.247 416.183L206.424 416.305C206.792 416.305 207.145 416.385 207.542 416.428C208.173 416.522 208.81 416.568 209.448 416.565H214.032L214.84 416.493L214.919 416.58C214.919 416.58 215.966 417.814 217.085 419.019C218.016 420.015 219.019 421.004 219.387 421.365L219.857 421.387C220.088 421.387 220.384 421.3 220.723 421.228L221.365 421.105C221.784 421.012 222.26 420.925 222.773 420.831C223.754 420.643 224.873 420.434 225.956 420.16L230.46 418.824C230.81 418.725 231.153 418.599 231.485 418.449L232.358 418.103L233.405 416.031L234.444 413.866H234.538C234.691 413.809 234.838 413.739 234.979 413.656L236.227 413.007C236.581 412.812 236.992 412.602 237.426 412.379C238.22 411.974 239.115 411.512 239.966 410.993L243.532 408.668C243.814 408.495 244.082 408.3 244.333 408.084C244.449 407.983 244.557 407.903 244.651 407.831L245.127 407.449L246.715 407.557L248.159 407.622L248.592 407.283L248.845 407.08C249.194 406.815 249.525 406.526 249.834 406.214L250.952 405.132C251.732 404.41 252.613 403.536 253.472 402.677L256.749 398.83C257.03 398.491 257.247 398.166 257.47 397.885C257.571 397.733 257.658 397.596 257.745 397.488L258.113 396.845L260.119 396.333L262.003 395.806C262.152 395.601 262.289 395.389 262.415 395.171L265.078 390.392C265.41 389.714 265.721 388.985 266.046 388.227L266.551 387.057C267.336 385.335 267.993 383.557 268.514 381.738C268.637 381.341 268.76 380.965 268.875 380.611C269.207 379.668 269.475 378.704 269.676 377.724C269.532 377.45 268.954 376.403 268.435 375.422C267.915 374.44 267.345 373.516 267.186 373.256L267.056 373.22L267.114 373.004C267.238 372.448 267.32 371.883 267.359 371.315L267.763 367.482C267.835 366.907 267.864 366.328 267.85 365.749V362.003C267.325 361.422 266.771 360.868 266.19 360.343L264.024 358.372H264.335C264.27 357.203 263.108 350.367 262.776 349.848L262.935 349.747L262.87 349.48L263.122 349.566C263.433 349.934 264.768 357.217 264.775 358.481L266.508 360.033C267.287 360.754 267.951 361.476 268.218 361.743H268.326V365.749C268.341 366.348 268.31 366.946 268.233 367.539L267.836 371.358C267.795 371.918 267.715 372.476 267.597 373.025C267.756 373.292 268.319 374.238 268.853 375.191C269.496 376.331 270.131 377.558 270.131 377.565L270.225 377.753L270.138 377.811C269.934 378.81 269.662 379.794 269.323 380.756C269.214 381.102 269.092 381.478 268.969 381.875C268.44 383.71 267.779 385.505 266.991 387.245C266.818 387.628 266.652 388.017 266.486 388.4C266.161 389.179 265.843 389.908 265.504 390.609L262.833 395.402C262.386 396.123 262.285 396.253 262.169 396.239L260.264 396.773L258.409 397.242L258.098 397.697C258.012 397.812 257.925 397.942 257.831 398.079C257.609 398.42 257.368 398.747 257.109 399.061L253.782 402.901C252.909 403.775 252.028 404.626 251.248 405.377C250.844 405.767 250.469 406.099 250.137 406.452C249.815 406.778 249.47 407.08 249.105 407.355L248.296 407.997L245.257 407.831L244.904 408.105L244.608 408.344C244.342 408.575 244.057 408.783 243.756 408.964L240.212 411.281C239.346 411.823 238.436 412.285 237.635 412.725C237.209 412.942 236.805 413.151 236.451 413.346L235.195 414.003C235.06 414.078 234.92 414.146 234.777 414.205L233.816 416.226L232.69 418.442L232.062 418.694L231.673 418.853C231.32 419.011 230.956 419.142 230.583 419.243L226.086 420.586C224.974 420.86 223.848 421.076 222.859 421.264L221.459 421.531L220.817 421.661C220.463 421.726 220.16 421.791 219.922 421.82L219.2 421.892L219.12 421.813C218.81 421.51 217.734 420.449 216.738 419.38C215.742 418.312 214.883 417.323 214.623 417.013L214.082 417.056H209.484C208.827 417.058 208.171 417.01 207.521 416.912C207.153 416.868 206.799 416.825 206.409 416.796L205.233 416.673C204.583 416.608 203.948 416.543 203.341 416.457L198.137 415.374L198.202 414.891Z" fill="#D3D3D3"/>
<path d="M151.401 347.712C153.613 338.975 157.768 330.851 163.556 323.943C163.989 323.445 164.379 322.983 164.733 322.564C165.339 321.842 165.844 321.257 166.248 320.81L167.317 319.785L167.981 320.507L166.934 321.517C166.552 321.929 166.061 322.513 165.491 323.221C165.137 323.639 164.769 324.109 164.307 324.607C156.747 333.674 152.018 344.764 150.708 356.496C149.753 364.328 150.344 372.272 152.447 379.876C154.535 387.477 158.061 394.608 162.834 400.881C166.964 406.391 172.028 411.133 177.797 414.891C178.715 415.557 179.68 416.156 180.685 416.681L181.5 417.136C181.933 417.367 182.359 417.608 182.778 417.858C183.48 418.268 184.203 418.641 184.943 418.977L188.119 420.348C188.437 420.478 188.755 420.623 189.065 420.76C189.614 421.025 190.184 421.245 190.769 421.417L196.103 423.113L195.814 424.022L190.501 422.341C189.873 422.153 189.262 421.911 188.675 421.619C188.379 421.489 188.069 421.352 187.744 421.222L184.561 419.843C183.8 419.493 183.057 419.103 182.338 418.674C181.919 418.435 181.5 418.197 181.067 417.952L180.252 417.497C179.216 416.959 178.221 416.344 177.278 415.656C171.435 411.845 166.305 407.04 162.12 401.458C157.261 395.079 153.674 387.826 151.552 380.093C149.417 372.366 148.816 364.295 149.784 356.338C150.127 353.429 150.667 350.547 151.401 347.712Z" fill="#D3D3D3"/>
<path d="M147.674 351.371L151.421 352.151L151.284 352.815C151.284 352.923 151.226 353.118 151.175 353.328C151.103 353.645 151.024 354.049 150.951 354.49C150.879 354.93 150.843 355.58 150.764 356.287C150.619 357.622 150.453 359.174 150.323 360.871C150.094 367.276 150.823 373.679 152.489 379.869L153.384 382.871C153.551 383.502 153.763 384.12 154.019 384.719L155.983 389.534L158.87 394.998L160.393 397.337C161.338 398.863 162.387 400.322 163.533 401.704L165.294 403.869C165.46 404.093 165.561 404.201 165.59 404.237L162.833 406.893C162.63 406.68 162.44 406.456 162.262 406.222L160.544 404.057C159.305 402.557 158.169 400.975 157.145 399.322L155.189 396.254L152.46 391.014L150.482 386.185C150.166 385.441 149.903 384.677 149.696 383.896L148.793 380.872C147.021 374.268 146.25 367.436 146.505 360.603C146.635 358.741 146.815 357.117 146.96 355.818C147.037 355.13 147.102 354.523 147.155 353.999C147.241 353.335 147.35 352.851 147.436 352.454C147.436 352.295 147.501 352.158 147.523 352.035L147.674 351.371Z" fill="#D3D3D3"/>
<path d="M167.33 319.792L170.426 316.79L175.046 313.116C175.385 312.877 175.703 312.668 176.035 312.459L179.882 309.954C180.669 309.499 181.477 309.081 182.314 308.655L183.758 307.933C190.016 304.815 196.744 302.75 203.673 301.819C219.73 299.708 235.976 303.957 248.945 313.657C254.52 317.864 259.365 322.958 263.288 328.736C263.591 329.219 263.894 329.674 264.19 330.122C264.71 330.908 265.208 331.674 265.634 332.431L267.799 336.524C267.987 336.871 268.167 337.21 268.326 337.549L270.643 343.324L271.791 347.185L270.874 347.46L269.661 343.324L267.496 337.939C267.352 337.636 267.178 337.304 266.998 336.972L264.876 332.901C264.443 332.179 263.945 331.457 263.432 330.649C263.136 330.194 262.833 329.739 262.537 329.263C258.675 323.576 253.905 318.563 248.418 314.422C235.656 304.858 219.659 300.664 203.846 302.736C197.028 303.648 190.407 305.677 184.249 308.741L182.805 309.463C181.982 309.889 181.181 310.301 180.43 310.734L176.547 313.26C176.222 313.469 175.912 313.671 175.609 313.881L170.881 317.685L167.994 320.478L167.33 319.792Z" fill="#D3D3D3"/>
<path d="M198.722 299.79L201.559 299.234C201.902 299.159 202.249 299.101 202.599 299.061L207.839 298.563C221.585 297.741 235.235 301.313 246.817 308.762L251.191 311.794C251.485 312.019 251.767 312.26 252.036 312.515L254.237 314.385L251.761 317.308L249.87 315.691L249.524 315.403C249.358 315.258 249.185 315.107 248.982 314.962L244.709 311.988C233.828 305.006 221.012 301.655 208.106 302.417L202.981 302.908C202.765 302.908 202.541 302.98 202.324 303.023L201.833 303.117L199.444 303.586L198.722 299.79Z" fill="#D3D3D3"/>
<path d="M196.037 423.076L201.494 424.216C202.095 424.35 202.706 424.44 203.32 424.483L204.36 424.592L207.788 424.953C208.59 425.018 209.395 425.042 210.199 425.025H212.596C213.716 425.063 214.838 425.02 215.952 424.895C222.836 424.452 229.588 422.805 235.903 420.03C243.15 416.906 249.732 412.422 255.291 406.821C260.855 401.222 265.268 394.589 268.284 387.295C270.91 380.936 272.492 374.194 272.968 367.33C273.233 362.483 272.935 357.622 272.081 352.843C271.943 352.186 271.835 351.587 271.727 351.046C271.554 350.144 271.409 349.393 271.279 348.823L270.868 347.451L271.785 347.177L272.203 348.57C272.348 349.184 272.492 349.941 272.672 350.865C272.773 351.407 272.889 351.999 273.019 352.648C273.885 357.506 274.19 362.446 273.928 367.373C273.442 374.347 271.833 381.196 269.164 387.656C266.101 395.073 261.611 401.815 255.948 407.499C250.305 413.193 243.62 417.749 236.257 420.918C229.86 423.732 223.02 425.4 216.046 425.848C214.899 425.981 213.743 426.03 212.588 425.992H210.206C209.368 426.016 208.53 425.992 207.695 425.92L204.251 425.559C203.898 425.508 203.53 425.479 203.234 425.451C202.572 425.41 201.916 425.313 201.27 425.162L195.842 424.029L196.037 423.076Z" fill="#D3D3D3"/>
<path d="M230.626 422.751L231.846 421.611C231.989 421.566 232.129 421.513 232.265 421.452L234.9 420.384C236.558 419.756 238.169 419.01 239.721 418.153L243.46 416.096L247.466 413.49L251.487 410.307C252.014 409.893 252.516 409.447 252.988 408.972L255.276 406.756C259.764 402.172 263.538 396.941 266.472 391.237C267.194 389.706 267.793 388.306 268.32 387.057C268.594 386.415 268.839 385.837 269.041 385.332C269.179 384.986 269.294 384.61 269.388 384.293L269.561 383.744L269.742 383.181L273.394 384.336L273.199 384.957C273.141 385.123 273.098 385.26 273.047 385.419C272.932 385.801 272.788 386.278 272.578 386.805C272.369 387.332 272.087 387.938 271.82 388.566C271.308 389.771 270.665 391.273 269.893 392.897C266.764 398.986 262.737 404.571 257.947 409.463L255.637 411.693C255.057 412.281 254.437 412.828 253.782 413.331L249.603 416.63L243.41 420.521L241.533 421.495C239.848 422.426 238.099 423.236 236.3 423.92L233.737 424.996C233.503 425.102 233.261 425.193 233.016 425.27L232.424 423.451L230.626 422.751Z" fill="#D3D3D3"/>
<path d="M195.272 417.133L195.097 417.684L197.291 418.382L197.466 417.831L195.272 417.133Z" fill="#D3D3D3"/>
<path d="M186.892 414.509L187.13 413.982L187.476 414.126L190.147 415.281L189.916 415.815L187.253 414.66L186.892 414.509ZM191.944 416.674L192.118 416.118L193.164 416.45L192.991 417.006L191.944 416.674Z" fill="#D3D3D3"/>
<path d="M156.236 352.599L156.806 352.714L156.691 353.284C156.691 353.458 156.611 353.667 156.561 353.905C156.43 354.437 156.333 354.977 156.272 355.522C156.272 355.645 156.272 355.782 156.272 355.919L155.694 355.868C155.694 355.731 155.694 355.601 155.731 355.471C155.796 354.901 155.895 354.334 156.026 353.775C156.077 353.551 156.128 353.357 156.156 353.176L156.236 352.599ZM155.413 358.041L155.99 358.099C155.954 358.453 155.918 358.821 155.882 359.189L155.305 359.131C155.341 358.756 155.377 358.388 155.413 358.041ZM155.146 361.34H155.723C155.723 362.141 155.687 362.899 155.723 363.657C155.759 364.415 155.723 365.007 155.723 365.7H155.146C155.146 364.978 155.146 364.306 155.146 363.642C155.146 362.978 155.11 362.155 155.146 361.34ZM155.247 367.396H155.832C155.904 368.464 156.012 369.561 156.149 370.651L155.572 370.723C155.435 369.583 155.326 368.479 155.247 367.396ZM155.889 372.867L156.46 372.773C156.517 373.127 156.582 373.495 156.647 373.849L156.077 373.95C156.012 373.589 155.947 373.228 155.889 372.867ZM156.517 376.115L157.088 375.985C157.405 377.429 157.809 378.873 158.192 380.208L157.636 380.374C157.217 378.988 156.842 377.559 156.517 376.115ZM158.141 381.948L158.697 381.76C159.044 382.792 159.419 383.824 159.83 384.828L159.296 385.051C158.885 384.034 158.502 382.994 158.141 381.948ZM160.177 387.073L160.704 386.827L161.115 387.701L161.173 387.802L160.661 388.076L160.603 387.968C160.451 387.657 160.314 387.369 160.177 387.073ZM161.671 390.01L162.184 389.75C162.815 391.054 163.538 392.311 164.349 393.511L163.873 393.85C163.048 392.625 162.312 391.342 161.671 390.01ZM164.775 395.215L165.258 394.897L166.211 396.341L167.164 397.568L166.709 397.929L165.554 396.42L164.775 395.215ZM168.045 399.632L168.507 399.278C168.73 399.56 168.961 399.841 169.192 400.116L168.745 400.491C168.507 400.21 168.276 399.928 168.045 399.632ZM170.21 402.122L170.629 401.718L173.263 404.447L173.689 404.815L173.314 405.262L172.859 404.858L171.841 403.811L171.004 402.938C170.773 402.671 170.506 402.404 170.239 402.122H170.21ZM174.541 406.323L174.924 405.883L176.302 407.06C176.659 407.389 177.032 407.7 177.421 407.991L177.067 408.46C176.634 408.128 176.259 407.81 175.912 407.493L174.541 406.323ZM178.872 409.723L179.197 409.247C179.471 409.434 179.745 409.622 179.998 409.81L180.099 409.882L179.76 410.351L179.666 410.286L178.872 409.723ZM181.579 411.6L181.896 411.109C182.301 411.369 182.654 411.571 182.965 411.73L185.7 413.253L185.419 413.758L182.69 412.242C182.43 412.083 182.062 411.867 181.636 411.6H181.579Z" fill="#D3D3D3"/>
<path d="M156.929 349.314L157.499 349.429L157.03 351.689L156.46 351.573L156.929 349.314Z" fill="#D3D3D3"/>
<path d="M156.936 349.285L157.636 347.091L158.185 347.264L157.492 349.458L156.936 349.285Z" fill="#D3D3D3"/>
<path d="M158.286 345.012L158.618 343.966L159.173 344.146L158.841 345.193L158.286 345.012ZM159.484 341.923L160.631 339.252C160.682 339.13 160.732 339.007 160.783 338.899L161.317 339.137C161.267 339.238 161.223 339.353 161.173 339.476L160.018 342.154L159.484 341.923Z" fill="#D3D3D3"/>
<path d="M161.534 337.484L163.057 334.755C163.251 334.373 163.465 334.002 163.699 333.644L164.183 333.954C163.959 334.299 163.755 334.656 163.569 335.022L162.046 337.765L161.534 337.484ZM164.941 331.825L165.013 331.724C165.2 331.464 165.381 331.204 165.569 330.93L166.045 331.254C165.857 331.536 165.67 331.803 165.482 332.063L165.417 332.157L164.941 331.825ZM166.839 329.125C167.14 328.723 167.463 328.337 167.806 327.97L168.968 326.599L169.409 326.974L168.239 328.353C167.922 328.699 167.619 329.075 167.301 329.479L166.839 329.125ZM170.051 325.386C170.181 325.227 170.311 325.076 170.448 324.924L171.502 323.914L173.184 322.275L173.588 322.694L171.906 324.332L170.867 325.328L170.491 325.754L170.051 325.386ZM174.815 320.788C175.097 320.55 175.385 320.319 175.681 320.066L176.035 320.528C175.746 320.745 175.465 320.976 175.198 321.207L174.815 320.788ZM177.399 318.738L178.908 317.583L180.099 316.811L180.416 317.302L178.973 318.255L177.782 319.193L177.399 318.738ZM181.463 315.923C182.686 315.093 183.967 314.353 185.296 313.707L185.556 314.227C184.254 314.857 182.999 315.58 181.802 316.392L181.463 315.923ZM187.237 312.704L187.353 312.639L188.241 312.22L188.486 312.74L187.591 313.115L187.497 313.166L187.237 312.704ZM190.269 311.34C191.28 310.921 192.326 310.531 193.366 310.185L193.553 310.733C192.521 311.08 191.489 311.455 190.486 311.874L190.269 311.34ZM194.939 309.679C196.325 309.253 197.762 308.878 199.205 308.561L199.335 309.124C197.892 309.441 196.448 309.845 195.113 310.235L194.939 309.679ZM201.363 308.12C201.724 308.048 202.085 307.99 202.453 307.933L202.547 308.503L201.472 308.69L201.363 308.12ZM204.633 307.615C205.73 307.471 206.835 307.362 207.925 307.29L207.961 307.868C206.893 307.94 205.795 308.048 204.705 308.185L204.633 307.615ZM209.57 307.204C210.292 307.204 210.964 307.167 211.628 307.204C212.292 307.24 213.165 307.204 213.981 307.204V307.788C213.172 307.752 212.414 307.752 211.664 307.788C210.913 307.824 210.314 307.788 209.614 307.788L209.57 307.204ZM216.182 307.341L217.279 307.456L217.215 308.034L216.125 307.918L216.182 307.341ZM219.452 307.694H219.849C220.418 307.761 220.982 307.862 221.538 307.998L222.137 308.12L222.722 308.243L222.599 308.813L222.029 308.69L221.408 308.568C220.876 308.437 220.336 308.338 219.791 308.272L219.394 308.236L219.452 307.694Z" fill="#D3D3D3"/>
<path d="M223.74 308.467L223.622 309.032L225.877 309.502L225.994 308.937L223.74 308.467Z" fill="#D3D3D3"/>
<path d="M226.005 308.934L225.83 309.485L228.025 310.181L228.199 309.631L226.005 308.934Z" fill="#D3D3D3"/>
<path d="M230.106 310.848L230.279 310.293L231.326 310.625L231.152 311.173L230.106 310.848ZM233.145 312.018L233.375 311.484L236.039 312.638L236.4 312.79L236.162 313.317L235.815 313.173L233.145 312.018Z" fill="#D3D3D3"/>
<path d="M237.534 314.047L237.816 313.542L240.537 315.057C240.921 315.248 241.292 315.463 241.649 315.7L241.338 316.191C240.934 315.931 240.58 315.729 240.27 315.57L237.534 314.047ZM243.136 317.447L243.475 316.977L243.569 317.042L244.363 317.605L244.038 318.082L243.229 317.519L243.136 317.447ZM245.842 319.309L246.196 318.847C246.622 319.172 247.005 319.489 247.351 319.807L248.73 320.976L248.354 321.417L246.976 320.24C246.615 319.91 246.236 319.599 245.842 319.309ZM249.596 322.478L249.971 322.037L250.426 322.442L251.444 323.488L253.075 325.177L252.656 325.574L251.87 324.766L250.022 322.853L249.596 322.478ZM254.122 327.184L254.562 326.809C254.8 327.09 255.038 327.372 255.284 327.668L254.829 328.021C254.562 327.732 254.331 327.458 254.1 327.184H254.122ZM256.157 329.754L256.612 329.393L257.767 330.901L258.539 332.085L258.056 332.403L257.103 330.959L256.157 329.754ZM258.958 333.789L259.434 333.449C260.262 334.672 261 335.953 261.643 337.282L261.123 337.549C260.488 336.243 259.757 334.986 258.936 333.789H258.958ZM262.141 339.498L262.654 339.224L262.711 339.332C262.863 339.635 263 339.931 263.137 340.227L262.61 340.473C262.473 340.177 262.336 339.888 262.192 339.599L262.141 339.498ZM263.484 342.472L264.018 342.248C264.429 343.259 264.819 344.305 265.173 345.352L264.617 345.532C264.249 344.5 263.888 343.468 263.462 342.472H263.484ZM265.122 347.099L265.678 346.926C266.097 348.311 266.472 349.741 266.797 351.192L266.227 351.314C265.887 349.885 265.512 348.485 265.1 347.099H265.122ZM266.667 353.451L267.237 353.35C267.302 353.711 267.367 354.072 267.425 354.432L266.847 354.526C266.775 354.173 266.71 353.812 266.645 353.451H266.667ZM267.165 356.685L267.742 356.612C267.879 357.717 267.988 358.821 268.06 359.904L267.482 359.94C267.389 358.872 267.28 357.774 267.143 356.685H267.165ZM268.147 361.578C268.147 362.3 268.183 362.972 268.183 363.636C268.183 364.3 268.183 365.166 268.183 365.982H267.605C267.605 365.18 267.605 364.422 267.605 363.664C267.605 362.907 267.569 362.271 267.547 361.578H268.147ZM267.432 368.111L268.009 368.169C267.973 368.544 267.937 368.89 267.894 369.259L267.316 369.194C267.338 368.847 267.374 368.486 267.41 368.111H267.432ZM267.078 371.381L267.656 371.438C267.656 371.568 267.656 371.698 267.62 371.828C267.552 372.399 267.451 372.966 267.316 373.524C267.266 373.748 267.223 373.943 267.194 374.124L267.071 374.701L266.508 374.586L266.624 374.008C266.624 373.842 266.703 373.633 266.753 373.395C266.885 372.862 266.981 372.322 267.042 371.778C267.028 371.655 267.042 371.518 267.057 371.381H267.078Z" fill="#D3D3D3"/>
<path d="M266.27 375.61L266.841 375.726L266.371 377.985L265.801 377.87L266.27 375.61Z" fill="#D3D3D3"/>
<path d="M265.107 380.035L265.807 377.834L266.356 378.014L265.663 380.208L265.107 380.035Z" fill="#D3D3D3"/>
<path d="M261.974 388.183C262.024 388.082 262.068 387.966 262.118 387.843L263.273 385.166L263.807 385.397L262.66 388.067C262.609 388.19 262.551 388.313 262.508 388.421L261.974 388.183ZM264.139 383.173L264.471 382.127L265.027 382.307L264.695 383.347L264.139 383.173Z" fill="#D3D3D3"/>
<path d="M200.713 418.5L201.284 418.623C201.457 418.623 201.666 418.695 201.897 418.753C202.337 418.846 202.886 418.969 203.514 419.041H203.911L203.861 419.619H203.464C202.895 419.552 202.331 419.451 201.774 419.316L201.175 419.193L200.591 419.07L200.713 418.5ZM206.098 419.316L207.188 419.431L207.13 420.008L206.033 419.893L206.098 419.316ZM209.354 419.583C210.162 419.619 210.92 419.619 211.671 419.583C212.421 419.547 213.02 419.583 213.721 419.547V420.131C212.999 420.131 212.335 420.167 211.671 420.131C211.006 420.095 210.133 420.131 209.317 420.131L209.354 419.583ZM215.352 419.482C216.42 419.409 217.517 419.301 218.607 419.164L218.679 419.741C217.582 419.879 216.471 419.987 215.388 420.059L215.352 419.482ZM220.765 418.846L221.841 418.659L221.949 419.229L220.859 419.424L220.765 418.846ZM223.978 418.226C225.421 417.908 226.865 417.504 228.2 417.114L228.366 417.67C226.987 418.088 225.551 418.471 224.107 418.796L223.978 418.226ZM229.752 416.616C230.784 416.269 231.816 415.894 232.82 415.475L233.036 416.017C232.026 416.428 230.979 416.818 229.94 417.165L229.752 416.616ZM234.805 414.609L235.736 414.169L235.83 414.111L236.104 414.624L235.996 414.689L235.101 415.115L234.805 414.609ZM237.692 413.122C238.996 412.491 240.252 411.768 241.453 410.957L241.792 411.426C240.569 412.256 239.288 412.997 237.959 413.642L237.692 413.122ZM242.839 410.047L244.282 409.102L245.473 408.156L245.834 408.611L244.325 409.766L243.207 410.56L242.839 410.047ZM247.22 406.799C247.509 406.575 247.79 406.352 248.057 406.121L248.44 406.561C248.158 406.799 247.87 407.03 247.574 407.283L247.22 406.799ZM249.667 404.634L250.483 403.847L251.349 403.003L252.388 402.006C252.511 401.869 252.641 401.725 252.764 401.573L253.204 401.949C253.074 402.107 252.944 402.259 252.8 402.411L251.753 403.421L250.887 404.266L250.071 405.052L249.667 404.634ZM253.825 400.303L255.001 398.924C255.319 398.578 255.622 398.202 255.94 397.798L256.401 398.152C256.101 398.554 255.778 398.94 255.434 399.307L254.272 400.678L253.825 400.303ZM257.188 396.015L257.758 395.214L257.823 395.12L258.3 395.452L258.228 395.553C258.04 395.806 257.86 396.073 257.672 396.347L257.188 396.015ZM259.058 393.316C259.282 392.974 259.487 392.62 259.671 392.255L261.194 389.512L261.7 389.8L260.184 392.522C259.99 392.904 259.775 393.275 259.541 393.633L259.058 393.316Z" fill="#D3D3D3"/>
<path d="M197.442 417.815L197.323 418.38L199.577 418.852L199.695 418.287L197.442 417.815Z" fill="#D3D3D3"/>
<path d="M145.43 348.081L146.058 348.21L145.531 350.708L144.91 350.578L145.43 348.081ZM144.39 353.076L145.018 353.205V353.364L144.773 355.71L144.138 355.645L144.39 353.076ZM143.834 358.186L144.47 358.251L144.354 359.363C144.298 359.827 144.271 360.295 144.275 360.763H143.632C143.635 360.28 143.664 359.799 143.719 359.319L143.834 358.186ZM143.632 363.311H144.267V365.866H143.632V363.311ZM143.777 368.443L144.412 368.385L144.65 370.912L144.015 370.977L143.777 368.443ZM144.282 373.546L144.91 373.445C144.968 373.777 145.033 374.109 145.098 374.441C145.162 374.773 145.206 374.968 145.249 375.228L145.393 375.95L144.766 376.073L144.628 375.351C144.58 375.081 144.53 374.821 144.477 374.571C144.405 374.225 144.332 373.885 144.282 373.546ZM145.256 378.599L145.877 378.476L146.13 379.761C146.231 380.136 146.339 380.533 146.455 380.938L145.841 381.111C145.726 380.707 145.617 380.31 145.509 379.905L145.256 378.599ZM146.577 383.565L147.184 383.37C147.436 384.171 147.711 384.98 147.992 385.781L147.393 385.998C147.104 385.153 146.83 384.345 146.577 383.536V383.565ZM148.288 388.401L148.88 388.163C149.19 388.95 149.508 389.737 149.847 390.516L149.262 390.769C148.923 389.953 148.598 389.159 148.288 388.372V388.401ZM150.316 393.107L150.894 392.833C151.255 393.598 151.616 394.363 152.013 395.114L151.45 395.41C151.053 394.616 150.677 393.851 150.316 393.079V393.107ZM152.662 397.684L153.211 397.352L153.42 397.713C153.781 398.319 154.142 398.918 154.539 399.517L154.005 399.864C153.615 399.257 153.232 398.651 152.864 398.037L152.662 397.684ZM155.427 402.015L155.954 401.654C156.437 402.376 156.928 403.04 157.433 403.718L156.921 404.101C156.416 403.343 155.918 402.671 155.427 401.964V402.015ZM158.487 406.129L158.992 405.725C159.519 406.396 160.061 407.046 160.609 407.688L160.126 408.1C159.57 407.407 159.029 406.743 158.502 406.078L158.487 406.129ZM161.815 410.027L162.291 409.594C162.869 410.222 163.446 410.842 164.038 411.442L163.576 411.889C162.984 411.232 162.399 410.604 161.815 409.976V410.027ZM165.424 413.686L165.835 413.203L167.777 414.856L167.366 415.339L165.424 413.686ZM169.307 417L169.726 416.516C170.036 416.776 170.339 417.036 170.664 417.281L171.733 418.003L171.372 418.53L170.289 417.808C169.957 417.49 169.632 417.223 169.329 416.949L169.307 417ZM173.465 420.009L173.833 419.483L175.905 420.926L175.601 421.482L175.241 421.251L173.465 420.009ZM177.796 422.724L178.106 422.161L179.196 422.774C179.579 422.976 179.961 423.193 180.337 423.409L180.019 423.965C179.651 423.748 179.297 423.532 178.886 423.33L177.796 422.724ZM182.329 425.134L182.581 424.55L184.927 425.56L184.675 426.145L182.329 425.134ZM187.013 427.155L187.266 426.571L187.894 426.845L189.648 427.401L189.453 428.007L187.67 427.437L187.013 427.155ZM191.886 428.78L192.081 428.173L194.513 428.946L194.325 429.552L191.886 428.78Z" fill="#D3D3D3"/>
<path d="M145.792 346.362L146.564 343.93L147.171 344.125L146.405 346.557L145.792 346.362ZM147.337 341.497L147.907 339.707L148.188 339.058L148.773 339.31L148.506 339.931L147.943 341.685L147.337 341.497ZM149.199 336.712L150.209 334.366L150.801 334.618L149.783 336.935L149.199 336.712ZM151.364 332.063C151.574 331.695 151.79 331.341 151.992 330.93L152.606 329.833L153.162 330.15L152.555 331.233C152.353 331.623 152.129 332.005 151.913 332.381L151.364 332.063ZM153.847 327.61L154.086 327.249L155.313 325.48L155.84 325.841L154.396 327.913L153.847 327.61ZM156.735 323.387L157.492 322.297C157.745 321.958 158.019 321.64 158.294 321.323L158.777 321.734C158.51 322.044 158.25 322.355 158.012 322.672L157.29 323.748L156.735 323.387ZM159.947 319.381L161.607 317.439L162.09 317.851L160.43 319.792L159.947 319.381ZM163.404 315.584C164.01 314.992 164.631 314.4 165.266 313.823L165.692 314.292C165.064 314.87 164.451 315.454 163.844 316.039L163.404 315.584ZM167.186 312.127C167.836 311.578 168.493 311.029 169.164 310.495L169.561 310.993C168.897 311.52 168.24 312.062 167.605 312.61L167.186 312.127ZM171.193 308.929C171.914 308.416 172.571 307.918 173.271 307.428L173.64 307.955C172.918 308.438 172.254 308.936 171.575 309.441L171.193 308.929ZM175.408 306.042C176.007 305.659 176.613 305.277 177.227 304.908L177.588 304.706L177.913 305.255L177.552 305.457C176.945 305.818 176.346 306.179 175.754 306.576L175.408 306.042ZM179.862 303.486C180.619 303.097 181.392 302.714 182.157 302.353L182.431 302.931C181.666 303.292 180.908 303.653 180.15 304.057L179.862 303.486ZM184.496 301.321C185.282 300.982 186.076 300.657 186.87 300.347L187.101 300.946C186.315 301.249 185.535 301.574 184.748 301.913L184.496 301.321ZM189.332 299.401C190.14 299.112 190.949 298.845 191.757 298.585L191.952 299.199C191.151 299.452 190.35 299.719 189.541 300.007L189.332 299.401ZM194.218 297.849L195.417 297.524L196.759 297.236L196.875 297.864L195.59 298.116L194.421 298.434L194.218 297.849ZM199.235 296.774L199.957 296.636L200.729 296.485L201.754 296.29L201.862 296.925C201.53 296.976 201.191 297.041 200.859 297.113L200.072 297.264L199.351 297.402L199.235 296.774ZM204.288 296.052L206.865 295.792L206.93 296.427L204.403 296.665L204.288 296.052ZM209.398 295.662H211.953V296.297H209.398V295.662ZM214.509 295.662C214.991 295.662 215.473 295.69 215.952 295.749L217.057 295.864L216.992 296.499L215.873 296.377C215.408 296.323 214.941 296.297 214.473 296.297L214.509 295.662ZM219.626 296.131L222.189 296.42L222.066 297.041H221.907L219.554 296.795L219.626 296.131ZM224.679 296.932L227.177 297.459L227.047 298.08L224.549 297.56L224.679 296.932Z" fill="#D3D3D3"/>
<path d="M228.742 298.404L228.93 297.798L231.406 298.57L231.211 299.177L228.742 298.404ZM233.607 299.949L233.802 299.343L235.585 299.906L236.242 300.187L235.989 300.779L235.361 300.505L233.607 299.949ZM238.328 301.79L238.581 301.205L240.927 302.216L240.674 302.8L238.328 301.79ZM242.919 303.955L243.236 303.399C243.605 303.616 243.958 303.825 244.362 304.035L245.46 304.641L245.12 305.175L244.03 304.569L242.919 303.955ZM247.38 306.445L247.683 305.89L248.044 306.128L249.819 307.355L249.451 307.882L247.38 306.445ZM251.545 309.333L251.913 308.806L252.995 309.528C253.335 309.787 253.659 310.054 253.977 310.329L253.558 310.812C253.248 310.553 252.945 310.285 252.62 310.047L251.545 309.333ZM255.5 312.501L255.919 312.018L257.86 313.671L257.449 314.154L255.5 312.501ZM259.254 315.916L259.715 315.468C260.307 316.074 260.892 316.695 261.469 317.33L261 317.763C260.423 317.128 259.845 316.508 259.254 315.908V315.916ZM262.682 319.669L263.166 319.258C263.722 319.9 264.263 320.564 264.804 321.228L264.299 321.632C263.772 320.961 263.231 320.333 262.682 319.662V319.669ZM265.858 323.639L266.363 323.264C266.876 323.942 267.374 324.635 267.865 325.343L267.338 325.703C266.854 324.996 266.363 324.31 265.858 323.632V323.639ZM268.745 327.818L269.28 327.472C269.669 328.071 270.045 328.685 270.42 329.298L270.622 329.659L270.066 329.984L269.864 329.616C269.511 328.995 269.135 328.41 268.753 327.811L268.745 327.818ZM271.272 332.221L271.835 331.926C272.232 332.691 272.607 333.456 272.968 334.228L272.391 334.502C272.037 333.73 271.669 332.965 271.279 332.214L271.272 332.221ZM273.437 336.819L274.022 336.567C274.361 337.354 274.686 338.14 274.996 338.934L274.404 339.173C274.101 338.379 273.784 337.592 273.444 336.812L273.437 336.819ZM275.292 341.555L275.891 341.338C276.18 342.154 276.454 342.962 276.707 343.771L276.101 343.965C275.855 343.15 275.581 342.349 275.299 341.547L275.292 341.555ZM276.83 346.398L277.443 346.225C277.559 346.629 277.667 347.033 277.775 347.43L278.028 348.737L277.407 348.859L277.155 347.574C277.061 347.185 276.952 346.788 276.837 346.391L276.83 346.398ZM277.891 351.364L278.519 351.241L278.656 351.963L278.808 352.743C278.88 353.089 278.945 353.465 279.002 353.768L278.374 353.869C278.317 353.537 278.252 353.205 278.187 352.865C278.122 352.526 278.078 352.346 278.028 352.079L277.891 351.364ZM278.613 356.417L279.248 356.352L279.486 358.885L278.851 358.943L278.613 356.417ZM279.002 361.469H279.638V364.025H279.046L279.002 361.469ZM279.002 366.573H279.645C279.642 367.055 279.613 367.537 279.558 368.016L279.443 369.121L278.808 369.056L278.923 367.944C278.991 367.475 279.032 367.003 279.046 366.529L279.002 366.573ZM278.54 371.625L279.176 371.69L278.887 374.26L278.259 374.13L278.295 373.971L278.54 371.625ZM277.739 376.628L278.367 376.757L277.84 379.255L277.22 379.125L277.739 376.628Z" fill="#D3D3D3"/>
<path d="M196.203 429.234L198.7 429.761L198.57 430.382L196.073 429.862L196.203 429.234ZM201.197 430.281H201.356L203.709 430.526L203.637 431.161L201.075 430.872L201.197 430.281ZM206.25 430.822L207.362 430.937C207.829 430.993 208.299 431.022 208.769 431.024V431.659C208.287 431.66 207.805 431.631 207.326 431.573L206.221 431.457L206.25 430.822ZM211.303 431.024H213.858V431.666H211.303V431.024ZM216.356 430.887L218.882 430.649L218.947 431.284V430.966V431.277L216.421 431.522L216.356 430.887ZM221.408 430.389L222.412 430.194C222.672 430.143 222.931 430.086 223.198 430.042L223.92 429.905L224.043 430.533L223.321 430.67C223.061 430.714 222.801 430.771 222.542 430.822L221.524 431.017L221.408 430.389ZM226.411 429.414L227.703 429.162L228.872 428.844L229.045 429.458L227.84 429.782L226.533 430.042L226.411 429.414ZM231.312 428.108C232.113 427.855 232.914 427.588 233.723 427.299L233.932 427.906C233.123 428.194 232.315 428.462 231.507 428.721L231.312 428.108ZM236.105 426.412C236.891 426.108 237.671 425.784 238.458 425.452L238.71 426.036C237.923 426.376 237.129 426.7 236.335 427.011L236.105 426.412ZM240.775 424.405C241.54 424.044 242.298 423.683 243.056 423.279L243.344 423.849C242.586 424.239 241.814 424.614 241.049 424.982L240.775 424.405ZM245.293 422.081L245.654 421.879C246.253 421.51 246.86 421.157 247.451 420.76L247.798 421.294C247.199 421.684 246.592 422.059 245.972 422.427L245.618 422.629L245.293 422.081ZM249.566 419.345C250.288 418.861 250.952 418.363 251.631 417.858L252.013 418.371C251.328 418.876 250.635 419.381 249.935 419.872L249.566 419.345ZM253.645 416.306C254.309 415.772 254.966 415.231 255.601 414.689L256.019 415.173C255.37 415.722 254.713 416.27 254.042 416.804L253.645 416.306ZM257.506 413.007C258.142 412.43 258.755 411.845 259.361 411.261L259.802 411.715C259.195 412.307 258.575 412.899 257.939 413.477L257.506 413.007ZM261.115 409.449L262.768 407.507L263.259 407.919L261.599 409.868L261.115 409.449ZM264.429 405.558C264.696 405.255 264.955 404.945 265.194 404.627L265.915 403.552L266.435 403.913L265.713 404.995C265.461 405.342 265.186 405.659 264.912 405.977L264.429 405.558ZM267.402 401.458L268.846 399.38L269.409 399.69L269.171 400.051L267.937 401.819L267.402 401.458ZM270.08 397.128L270.687 396.045C270.889 395.655 271.113 395.272 271.322 394.897L271.878 395.215C271.668 395.583 271.452 395.937 271.25 396.348L270.636 397.438L270.08 397.128ZM272.462 392.652L273.48 390.314L274.065 390.566L273.054 392.905L272.462 392.652ZM274.491 387.968L274.758 387.347L275.314 385.586L275.927 385.781L275.357 387.571L275.075 388.22L274.491 387.968ZM276.086 383.16L276.858 380.721L277.472 380.916L276.699 383.348L276.086 383.16Z" fill="#D3D3D3"/>
<path d="M151.819 404.591C151.85 404.474 151.918 404.37 152.014 404.295C152.124 404.237 152.25 404.214 152.374 404.23C152.5 404.264 152.61 404.34 152.685 404.447L152.966 404.894L153.132 405.132C153.212 405.269 153.32 405.421 153.428 405.594C153.499 405.699 153.525 405.827 153.502 405.951C153.479 406.075 153.409 406.186 153.306 406.258C153.204 406.328 153.079 406.356 152.957 406.334C152.835 406.312 152.727 406.244 152.656 406.143C152.519 405.948 152.403 405.775 152.309 405.63C152.216 405.486 152.216 405.486 152.172 405.421L151.884 404.959C151.847 404.906 151.822 404.846 151.811 404.782C151.8 404.719 151.802 404.653 151.819 404.591ZM159.037 413.397C159.057 413.309 159.102 413.229 159.167 413.166C159.258 413.079 159.38 413.03 159.506 413.029C159.571 413.029 159.634 413.044 159.693 413.071C159.752 413.099 159.804 413.138 159.845 413.188C159.933 413.283 159.98 413.41 159.974 413.54C159.969 413.67 159.912 413.793 159.816 413.881C159.721 413.969 159.594 414.015 159.464 414.01C159.334 414.004 159.211 413.948 159.123 413.852C159.068 413.792 159.029 413.718 159.011 413.638C158.994 413.558 158.997 413.475 159.022 413.397H159.037ZM168.153 421.51C168.171 421.457 168.196 421.406 168.226 421.359C168.302 421.259 168.412 421.19 168.536 421.164C168.658 421.141 168.784 421.164 168.89 421.229L169.251 421.474L172.946 424.037C173.506 424.433 174.089 424.795 174.693 425.119H174.765C175.364 425.444 175.949 425.783 176.526 426.108L176.642 426.166L177.977 426.888C178.735 427.314 179.457 427.725 180.143 428.072C180.828 428.418 181.731 428.75 182.467 429.075L186.307 430.728C186.834 430.923 187.346 431.082 187.787 431.212L188.509 431.442L190.479 432.078C190.595 432.113 190.693 432.192 190.751 432.299C190.809 432.406 190.823 432.531 190.789 432.648C190.772 432.708 190.743 432.764 190.704 432.812C190.664 432.861 190.615 432.901 190.56 432.93C190.505 432.959 190.444 432.976 190.382 432.981C190.319 432.986 190.257 432.978 190.198 432.958L188.22 432.33L187.498 432.114C187.029 431.977 186.495 431.811 185.917 431.601C185.333 431.356 184.719 431.089 184.055 430.793L179.724 428.931C178.952 428.555 178.208 428.129 177.414 427.682L176.137 426.96L175.133 426.397L174.188 425.87C173.548 425.536 172.933 425.158 172.347 424.737L169.691 422.896L168.673 422.174C168.565 422.088 168.435 422.016 168.312 421.936C168.25 421.885 168.202 421.819 168.172 421.745C168.141 421.671 168.13 421.59 168.139 421.51H168.153Z" fill="#D3D3D3"/>
<path d="M141.388 345.236C143.024 338.985 145.485 332.979 148.708 327.378C148.737 327.324 148.777 327.276 148.826 327.238C148.874 327.199 148.93 327.171 148.989 327.154C149.052 327.137 149.117 327.133 149.182 327.142C149.246 327.151 149.308 327.172 149.364 327.205C149.471 327.271 149.547 327.375 149.578 327.496C149.609 327.617 149.592 327.746 149.53 327.854C146.362 333.378 143.936 339.295 142.312 345.452V345.553C141.93 346.997 141.59 348.506 141.302 350.014V350.101C141.302 350.252 141.237 350.404 141.208 350.556C141.198 350.618 141.175 350.679 141.14 350.732C141.106 350.786 141.061 350.832 141.009 350.868C140.956 350.904 140.896 350.928 140.834 350.94C140.771 350.953 140.707 350.952 140.645 350.938C140.583 350.927 140.524 350.904 140.472 350.869C140.42 350.834 140.376 350.789 140.342 350.736C140.274 350.626 140.248 350.495 140.269 350.368C140.269 350.209 140.342 350.036 140.371 349.863C140.63 348.311 140.984 346.766 141.388 345.236ZM139.865 352.548C139.891 352.423 139.965 352.314 140.072 352.245C140.178 352.175 140.307 352.15 140.432 352.176C140.556 352.202 140.665 352.276 140.735 352.382C140.805 352.489 140.829 352.618 140.804 352.743C140.781 352.865 140.712 352.973 140.611 353.046C140.51 353.118 140.385 353.149 140.262 353.132C140.142 353.11 140.034 353.043 139.96 352.946C139.885 352.849 139.849 352.728 139.858 352.606C139.859 352.586 139.862 352.567 139.865 352.548ZM139.014 362.502C139.042 362.401 139.102 362.311 139.185 362.248C139.269 362.184 139.371 362.149 139.475 362.148C139.54 362.146 139.605 362.157 139.665 362.182C139.724 362.207 139.778 362.245 139.822 362.292C139.906 362.386 139.955 362.506 139.959 362.632C139.954 362.76 139.899 362.881 139.806 362.97C139.713 363.059 139.589 363.108 139.461 363.108C139.335 363.102 139.217 363.048 139.13 362.956C139.044 362.865 138.997 362.743 138.999 362.617C138.999 362.578 139.004 362.539 139.014 362.502ZM139.858 374.693C139.881 374.603 139.93 374.521 139.999 374.46C140.069 374.398 140.156 374.358 140.248 374.347C140.371 374.329 140.497 374.357 140.602 374.426C140.701 374.507 140.769 374.619 140.796 374.744C140.847 375.126 140.912 375.465 140.97 375.87C141.953 381.651 143.651 387.288 146.022 392.652L146.34 393.424C146.975 394.724 147.567 395.842 148.043 396.745C148.224 397.069 148.383 397.373 148.52 397.647C148.569 397.76 148.574 397.887 148.534 398.003C148.494 398.119 148.412 398.216 148.303 398.275C148.248 398.304 148.187 398.323 148.124 398.328C148.061 398.334 147.998 398.326 147.938 398.307C147.878 398.287 147.822 398.256 147.775 398.214C147.727 398.173 147.688 398.122 147.661 398.066L147.192 397.185C146.708 396.261 146.109 395.128 145.459 393.785C145.351 393.504 145.236 393.237 145.127 392.955C143.438 388.833 141.114 383.182 140.024 376.021C139.952 375.631 139.894 375.256 139.836 374.874C139.838 374.811 139.853 374.75 139.88 374.693H139.858ZM155.615 317.446C155.642 317.38 155.678 317.319 155.724 317.265C155.761 317.216 155.809 317.175 155.864 317.147C155.919 317.118 155.979 317.102 156.041 317.099C156.168 317.087 156.294 317.123 156.395 317.201C156.487 317.286 156.545 317.402 156.556 317.527C156.568 317.652 156.534 317.778 156.46 317.879C156.419 317.927 156.37 317.966 156.314 317.994C156.258 318.023 156.197 318.04 156.135 318.045C156.072 318.052 156.008 318.046 155.947 318.028C155.886 318.009 155.83 317.978 155.781 317.937C155.71 317.879 155.656 317.802 155.627 317.715C155.598 317.629 155.594 317.535 155.615 317.446ZM162.53 310.228C162.552 310.135 162.602 310.052 162.675 309.99C162.764 309.901 162.885 309.851 163.01 309.851C163.136 309.851 163.257 309.901 163.346 309.99C163.432 310.082 163.479 310.203 163.479 310.329C163.479 310.455 163.432 310.576 163.346 310.668C163.255 310.755 163.133 310.804 163.007 310.804C162.88 310.804 162.759 310.755 162.667 310.668C162.609 310.613 162.566 310.543 162.543 310.466C162.52 310.388 162.518 310.306 162.537 310.228H162.53ZM164.198 308.784C164.226 308.69 164.275 308.603 164.342 308.531C167.301 305.986 170.463 303.688 173.798 301.66C177.465 299.405 181.33 297.491 185.347 295.943C185.405 295.916 185.467 295.903 185.531 295.903C185.594 295.903 185.657 295.916 185.715 295.943C185.804 295.979 185.88 296.041 185.933 296.121C185.987 296.201 186.015 296.295 186.015 296.391C186.015 296.487 185.987 296.58 185.933 296.66C185.88 296.74 185.804 296.802 185.715 296.838C178.154 299.758 171.147 303.95 164.999 309.232C164.951 309.272 164.896 309.302 164.837 309.321C164.777 309.339 164.714 309.346 164.652 309.34C164.589 309.338 164.528 309.321 164.472 309.293C164.416 309.264 164.366 309.224 164.328 309.174C164.28 309.122 164.244 309.06 164.223 308.993C164.202 308.925 164.196 308.854 164.205 308.784H164.198ZM148.7 399.733C148.716 399.667 148.746 399.606 148.787 399.553C148.828 399.499 148.879 399.455 148.938 399.423C149.052 399.367 149.182 399.357 149.302 399.396C149.422 399.436 149.522 399.52 149.581 399.632C149.641 399.744 149.655 399.875 149.618 399.997C149.581 400.119 149.498 400.221 149.386 400.281C149.274 400.342 149.143 400.355 149.021 400.319C148.899 400.282 148.797 400.199 148.736 400.087C148.682 399.977 148.669 399.851 148.7 399.733ZM196.817 292.796C196.838 292.71 196.884 292.631 196.95 292.571C197.015 292.511 197.097 292.471 197.185 292.457C197.248 292.439 197.314 292.434 197.379 292.443C197.444 292.452 197.507 292.474 197.563 292.508C197.619 292.542 197.668 292.588 197.705 292.641C197.743 292.695 197.769 292.756 197.782 292.821C197.795 292.885 197.795 292.952 197.781 293.016C197.767 293.08 197.74 293.141 197.701 293.194C197.663 293.247 197.614 293.292 197.557 293.325C197.5 293.359 197.438 293.38 197.372 293.388C197.249 293.413 197.12 293.389 197.015 293.32C196.909 293.251 196.835 293.143 196.809 293.02C196.79 292.946 196.793 292.868 196.817 292.796ZM206.72 291.461C206.744 291.364 206.799 291.278 206.875 291.214C206.952 291.151 207.046 291.113 207.146 291.107C207.273 291.095 207.401 291.134 207.499 291.215C207.594 291.295 207.654 291.409 207.665 291.533C207.674 291.659 207.632 291.784 207.55 291.881C207.468 291.978 207.351 292.04 207.225 292.052C207.107 292.049 206.994 292.009 206.9 291.937C206.802 291.849 206.738 291.728 206.72 291.598C206.714 291.552 206.714 291.506 206.72 291.461ZM208.936 291.359C208.964 291.255 209.026 291.164 209.112 291.099C209.199 291.035 209.305 291.002 209.412 291.006C210.134 291.006 210.892 291.006 211.578 291.006H213.685C214.739 290.982 215.793 291.03 216.84 291.15L221.993 291.692C222.468 291.727 222.938 291.799 223.401 291.908H223.603C223.688 291.933 223.775 291.95 223.863 291.959C223.985 291.995 224.092 292.071 224.166 292.175C224.216 292.254 224.242 292.346 224.24 292.44C224.238 292.533 224.209 292.624 224.156 292.701C224.103 292.778 224.028 292.837 223.942 292.872C223.855 292.907 223.76 292.916 223.668 292.897L223.192 292.796C222.772 292.694 222.345 292.631 221.914 292.608L216.724 292.06C215.69 291.934 214.648 291.886 213.606 291.915H209.398C209.335 291.916 209.273 291.905 209.215 291.881C209.157 291.857 209.105 291.822 209.061 291.778C209.017 291.733 208.983 291.68 208.96 291.622C208.937 291.564 208.927 291.501 208.929 291.439C208.928 291.412 208.93 291.386 208.936 291.359Z" fill="#D3D3D3"/>
<path d="M232.474 294.6C232.493 294.54 232.524 294.485 232.564 294.437C232.605 294.39 232.654 294.35 232.71 294.322C232.766 294.294 232.827 294.277 232.889 294.273C232.952 294.268 233.014 294.277 233.074 294.297L233.254 294.347L235.044 294.918L235.766 295.141C236.25 295.279 236.769 295.445 237.354 295.654L240.183 296.874L241.93 297.632L243.54 298.317C244.312 298.693 245.07 299.133 245.864 299.573C246.283 299.804 246.709 300.05 247.134 300.295L249.011 301.349L249.091 301.392C249.731 301.724 250.346 302.103 250.931 302.526L254.591 305.066C254.715 305.139 254.836 305.219 254.952 305.305C255.055 305.379 255.126 305.49 255.15 305.614C255.174 305.739 255.15 305.868 255.082 305.976C255.008 306.077 254.898 306.147 254.774 306.17C254.651 306.192 254.523 306.167 254.418 306.099L254.078 305.868L253.876 305.738C252.7 304.929 251.53 304.106 250.361 303.298C249.794 302.887 249.198 302.518 248.578 302.194H248.542L247.539 301.566L246.673 301.082L245.337 300.36C244.565 299.934 243.857 299.523 243.172 299.176L236.979 296.513C236.444 296.318 235.932 296.159 235.477 296.029L234.755 295.798C233.514 295.394 232.806 295.185 232.792 295.177C232.678 295.136 232.583 295.055 232.524 294.949C232.466 294.842 232.448 294.718 232.474 294.6ZM263.346 313.663C263.373 313.581 263.414 313.506 263.469 313.439C263.562 313.352 263.684 313.303 263.812 313.303C263.94 313.303 264.062 313.352 264.155 313.439C264.244 313.53 264.294 313.652 264.294 313.779C264.294 313.906 264.244 314.027 264.155 314.118C264.063 314.201 263.946 314.249 263.823 314.255C263.76 314.256 263.697 314.243 263.64 314.217C263.582 314.19 263.531 314.152 263.491 314.103C263.431 314.049 263.386 313.98 263.36 313.902C263.335 313.825 263.33 313.743 263.346 313.663ZM269.785 321.314C269.816 321.203 269.885 321.106 269.98 321.04C270.084 320.969 270.211 320.942 270.335 320.963C270.459 320.985 270.57 321.054 270.644 321.156C270.774 321.336 270.875 321.495 270.969 321.639C271.015 321.721 271.066 321.801 271.12 321.877L271.409 322.332C271.476 322.439 271.499 322.568 271.474 322.692C271.448 322.815 271.376 322.924 271.272 322.996C271.22 323.031 271.161 323.054 271.099 323.066C271.038 323.077 270.974 323.076 270.913 323.063C270.852 323.049 270.794 323.024 270.743 322.987C270.692 322.951 270.648 322.905 270.615 322.852L270.319 322.404C270.271 322.322 270.218 322.242 270.16 322.166C270.074 322.022 269.973 321.863 269.857 321.704C269.819 321.648 269.793 321.584 269.781 321.517C269.768 321.45 269.77 321.381 269.785 321.314Z" fill="#D3D3D3"/>
<path d="M199.047 434.699C199.078 434.581 199.152 434.478 199.255 434.413C199.358 434.347 199.482 434.323 199.603 434.345C199.603 434.345 199.783 434.345 200.093 434.446C200.515 434.55 200.945 434.615 201.378 434.641L206.554 435.175C207.564 435.299 208.582 435.352 209.6 435.334H213.887C213.949 435.332 214.011 435.343 214.068 435.367C214.126 435.39 214.177 435.426 214.219 435.471C214.265 435.515 214.302 435.568 214.326 435.626C214.351 435.684 214.364 435.747 214.364 435.811C214.359 435.936 214.307 436.055 214.219 436.144C214.131 436.234 214.013 436.287 213.887 436.294H213.606C212.393 436.294 211.253 436.294 210.184 436.294H209.549C208.508 436.325 207.465 436.277 206.431 436.15L201.284 435.601C200.81 435.575 200.339 435.505 199.877 435.392L199.66 435.349L199.422 435.305C199.361 435.292 199.303 435.266 199.252 435.23C199.201 435.194 199.157 435.148 199.123 435.095C199.09 435.042 199.067 434.983 199.056 434.921C199.046 434.859 199.047 434.796 199.061 434.735L199.047 434.699ZM215.649 435.594C215.674 435.499 215.727 435.414 215.802 435.351C215.877 435.288 215.97 435.249 216.067 435.24C216.197 435.228 216.327 435.267 216.428 435.349C216.485 435.4 216.528 435.465 216.554 435.537C216.581 435.609 216.589 435.687 216.579 435.763C216.569 435.839 216.541 435.911 216.497 435.974C216.453 436.037 216.394 436.088 216.326 436.123C216.258 436.159 216.182 436.177 216.106 436.177C216.029 436.176 215.953 436.158 215.885 436.122C215.817 436.086 215.759 436.035 215.715 435.972C215.672 435.909 215.644 435.836 215.634 435.76C215.629 435.705 215.632 435.649 215.641 435.594H215.649ZM225.559 434.244C225.582 434.16 225.628 434.084 225.692 434.024C225.756 433.964 225.835 433.923 225.92 433.905C226.047 433.88 226.18 433.906 226.288 433.977C226.342 434.009 226.387 434.053 226.421 434.106C226.455 434.158 226.476 434.218 226.483 434.28C226.5 434.371 226.49 434.465 226.455 434.551C226.419 434.636 226.359 434.71 226.283 434.762C226.206 434.814 226.116 434.842 226.023 434.844C225.931 434.846 225.84 434.82 225.761 434.771C225.709 434.737 225.665 434.693 225.631 434.64C225.598 434.588 225.576 434.529 225.566 434.468C225.547 434.395 225.542 434.319 225.552 434.244H225.559ZM237.289 430.83C237.307 430.756 237.344 430.689 237.396 430.633C237.447 430.577 237.512 430.536 237.585 430.512C241.549 428.976 245.366 427.085 248.989 424.861C252.284 422.86 255.406 420.588 258.322 418.068C258.369 418.025 258.425 417.991 258.485 417.969C258.545 417.947 258.609 417.938 258.673 417.941C258.738 417.945 258.8 417.961 258.858 417.989C258.915 418.018 258.967 418.058 259.008 418.106C259.05 418.155 259.082 418.211 259.101 418.273C259.121 418.334 259.128 418.398 259.121 418.462C259.115 418.526 259.096 418.588 259.066 418.644C259.035 418.701 258.993 418.75 258.943 418.79C252.697 424.157 245.581 428.419 237.902 431.393C237.785 431.438 237.655 431.435 237.541 431.385C237.426 431.335 237.335 431.242 237.289 431.126C237.254 431.031 237.251 430.927 237.281 430.83H237.289ZM273.675 327.329C273.689 327.263 273.718 327.2 273.759 327.147C273.801 327.093 273.853 327.049 273.914 327.019C274.028 326.963 274.159 326.95 274.282 326.982C274.402 327.025 274.5 327.113 274.556 327.228C274.603 327.341 274.608 327.467 274.568 327.583C274.528 327.699 274.446 327.796 274.339 327.856C274.225 327.912 274.094 327.922 273.972 327.883C273.851 327.843 273.75 327.759 273.69 327.646C273.649 327.545 273.644 327.433 273.675 327.329ZM274.715 329.299C274.752 329.168 274.841 329.056 274.96 328.989C275.016 328.959 275.077 328.941 275.14 328.936C275.203 328.93 275.266 328.938 275.326 328.957C275.386 328.977 275.441 329.008 275.489 329.05C275.536 329.091 275.575 329.142 275.603 329.198C275.747 329.487 275.92 329.797 276.108 330.151C276.577 331.053 277.169 332.172 277.804 333.486C277.92 333.753 278.021 334.02 278.129 334.302C280.542 339.716 282.264 345.413 283.254 351.257C283.319 351.625 283.377 351.979 283.434 352.398C283.449 352.521 283.417 352.646 283.343 352.747C283.269 352.847 283.16 352.916 283.037 352.939C282.976 352.949 282.914 352.947 282.853 352.933C282.793 352.919 282.736 352.893 282.685 352.857C282.635 352.821 282.592 352.775 282.56 352.722C282.527 352.669 282.506 352.61 282.496 352.549C282.438 352.159 282.373 351.791 282.301 351.416C281.325 345.635 279.628 339.999 277.248 334.641L276.938 333.876C276.31 332.562 275.704 331.429 275.227 330.527C275.061 330.202 274.91 329.899 274.765 329.624C274.71 329.526 274.692 329.41 274.715 329.299ZM259.838 416.834C259.859 416.752 259.901 416.677 259.961 416.617C260.021 416.557 260.096 416.514 260.178 416.494C260.261 416.473 260.347 416.475 260.428 416.499C260.509 416.524 260.582 416.569 260.639 416.632C260.725 416.724 260.773 416.845 260.773 416.971C260.773 417.097 260.725 417.218 260.639 417.31C260.549 417.399 260.427 417.449 260.3 417.449C260.173 417.449 260.051 417.399 259.961 417.31C259.898 417.251 259.853 417.174 259.831 417.09C259.809 417.006 259.812 416.917 259.838 416.834ZM266.739 409.616C266.751 409.547 266.781 409.482 266.825 409.428C266.913 409.333 267.03 409.269 267.157 409.248C267.284 409.239 267.408 409.281 267.504 409.363C267.601 409.446 267.662 409.564 267.672 409.691C267.683 409.818 267.643 409.944 267.562 410.042C267.48 410.132 267.366 410.187 267.244 410.193C267.122 410.202 267.002 410.166 266.905 410.092C266.838 410.032 266.791 409.953 266.768 409.866C266.745 409.779 266.747 409.687 266.775 409.601L266.739 409.616ZM273.711 399.575C273.711 399.575 273.748 399.496 273.755 399.46C277.718 392.583 280.506 385.094 282.005 377.3C282.005 377.12 282.077 376.939 282.106 376.759C282.141 376.646 282.215 376.549 282.316 376.488C282.416 376.426 282.536 376.403 282.652 376.423C282.769 376.444 282.874 376.506 282.947 376.598C283.021 376.691 283.058 376.807 283.052 376.925C283.052 377.026 283.016 377.112 282.994 377.206C282.972 377.3 282.958 377.394 282.951 377.481C281.423 385.378 278.598 392.968 274.592 399.944C274.527 400.053 274.422 400.132 274.299 400.165C274.176 400.197 274.046 400.18 273.935 400.117C273.839 400.065 273.764 399.981 273.723 399.879C273.682 399.778 273.678 399.665 273.711 399.561V399.575ZM283.377 364.56C283.398 364.454 283.457 364.36 283.541 364.293C283.625 364.225 283.731 364.19 283.839 364.192C283.902 364.193 283.964 364.206 284.022 364.232C284.08 364.257 284.132 364.293 284.176 364.339C284.22 364.385 284.254 364.439 284.276 364.498C284.299 364.557 284.31 364.62 284.308 364.683C284.308 364.746 284.295 364.808 284.271 364.866C284.246 364.924 284.21 364.976 284.165 365.02C284.12 365.064 284.067 365.098 284.008 365.121C283.949 365.143 283.887 365.154 283.824 365.152C283.698 365.148 283.579 365.096 283.491 365.005C283.404 364.915 283.355 364.794 283.355 364.668C283.355 364.631 283.362 364.594 283.377 364.56ZM282.532 374.521C282.558 374.397 282.632 374.288 282.738 374.218C282.845 374.148 282.974 374.124 283.099 374.149C283.223 374.175 283.332 374.25 283.402 374.356C283.472 374.462 283.496 374.592 283.47 374.716C283.461 374.779 283.439 374.839 283.405 374.894C283.372 374.948 283.328 374.995 283.276 375.032C283.225 375.069 283.166 375.095 283.104 375.109C283.042 375.123 282.977 375.124 282.915 375.113C282.789 375.09 282.678 375.019 282.604 374.916C282.529 374.812 282.499 374.683 282.518 374.557L282.532 374.521Z" fill="#D3D3D3"/>
</g>
<path opacity="0.5" d="M232.128 359.967C233.859 357.528 234.923 354.68 235.215 351.703C235.508 348.727 235.018 345.725 233.794 342.996C232.571 340.267 230.656 337.905 228.24 336.143C225.823 334.38 222.988 333.28 220.015 332.95V324.237H212.191V332.841H206.864V324.237H199.104V332.841H185.845V342.571H195.106V382.177H185.845V391.908H199.104V400.512H206.864V391.908H212.162V400.512H219.951V391.908H223.22C226.987 391.922 230.654 390.7 233.658 388.428C236.662 386.156 238.837 382.961 239.849 379.333C240.861 375.705 240.653 371.845 239.258 368.346C237.863 364.848 235.358 361.904 232.128 359.967ZM218.095 342.571C219.096 342.54 220.092 342.71 221.025 343.072C221.958 343.433 222.809 343.978 223.528 344.674C224.246 345.371 224.817 346.205 225.207 347.126C225.597 348.048 225.798 349.038 225.798 350.039C225.798 351.039 225.597 352.03 225.207 352.951C224.817 353.873 224.246 354.706 223.528 355.403C222.809 356.099 221.958 356.644 221.025 357.005C220.092 357.367 219.096 357.537 218.095 357.506H204.836V342.571H218.095ZM223.285 382.177H204.836V367.25H223.249C224.249 367.219 225.246 367.389 226.179 367.751C227.112 368.112 227.963 368.657 228.681 369.353C229.4 370.05 229.971 370.884 230.361 371.805C230.751 372.726 230.952 373.717 230.952 374.717C230.952 375.718 230.751 376.709 230.361 377.63C229.971 378.551 229.4 379.385 228.681 380.082C227.963 380.778 227.112 381.323 226.179 381.684C225.246 382.046 224.249 382.216 223.249 382.185L223.285 382.177Z" fill="#F5F5F5"/>
<defs>
<linearGradient id="paint0_linear_121_2" x1="1" y1="181.154" x2="649" y2="181.154" gradientUnits="userSpaceOnUse">
<stop stop-color="#59595B"/>
<stop offset="0.329412" stop-color="#3F3F3F"/>
<stop offset="1" stop-color="#3F3F3F"/>
</linearGradient>
<linearGradient id="paint1_linear_121_2" x1="436.97" y1="214.758" x2="635.608" y2="214.758" gradientUnits="userSpaceOnUse">
<stop stop-color="white" stop-opacity="0.698039"/>
<stop offset="0.329412" stop-color="white" stop-opacity="0.4"/>
<stop offset="1" stop-color="white" stop-opacity="0.0980392"/>
</linearGradient>
</defs>
</svg>
