<svg width="108" height="101" viewBox="0 0 108 101" fill="none" xmlns="http://www.w3.org/2000/svg">
<g clip-path="url(#clip0_418_8)">
<path d="M12.4985 76.1069C13.3821 75.2233 13.3821 73.7906 12.4985 72.9068C11.6149 72.0234 10.1821 72.0234 9.29832 72.9068L0.662691 81.5429C-0.220897 82.4265 -0.220897 83.8592 0.662691 84.743C1.10437 85.1847 1.68363 85.4058 2.26265 85.4058C2.84168 85.4058 3.42093 85.1847 3.86262 84.743L12.4985 76.1069Z" fill="#FFE500"/>
<path d="M69.4457 15.5285C67.4391 17.5353 66.334 20.2033 66.334 23.0409C66.334 25.8788 67.4391 28.5468 69.4457 30.5534C71.5167 32.6244 74.2374 33.6598 76.9581 33.6598C79.6788 33.6598 82.3992 32.6244 84.4703 30.5534C86.4771 28.5468 87.582 25.8788 87.582 23.0409C87.582 20.2033 86.4769 17.5353 84.4703 15.5285C80.3282 11.3864 73.5882 11.3864 69.4457 15.5285ZM81.2704 27.3534C78.8925 29.7318 75.0237 29.7316 72.6456 27.3534C71.4936 26.2015 70.8594 24.6703 70.8594 23.0409C70.8594 21.412 71.4939 19.8804 72.6456 18.7284C73.8346 17.5394 75.3961 16.945 76.9581 16.945C78.5196 16.945 80.0818 17.5396 81.2704 18.7284C82.4223 19.8804 83.0568 21.4118 83.0568 23.0409C83.0568 24.6703 82.4223 26.2015 81.2704 27.3534Z" fill="#FFE500"/>
<path d="M19.6345 80.0425C18.7509 79.1591 17.3181 79.1591 16.4345 80.0425L4.32089 92.1563C3.43731 93.0399 3.43731 94.4727 4.32089 95.3565C4.7628 95.7982 5.34183 96.0192 5.92086 96.0192C6.49988 96.0192 7.07914 95.7982 7.52082 95.3565L19.6345 83.2426C20.518 82.3588 20.518 80.9261 19.6345 80.0425Z" fill="#FFE500"/>
<path d="M98.5593 3.01599C98.347 2.25074 97.749 1.65316 96.9842 1.44069C88.7378 -0.848037 79.8055 -0.402735 71.1529 2.72772C64.4483 5.15357 57.9276 9.22012 53.2628 13.8851L46.2267 20.9213L20.7363 24.903C20.2625 24.9769 19.8247 25.1996 19.4855 25.5386L3.18246 41.8416C2.54755 42.4767 2.34798 43.4269 2.67403 44.2634C3.00009 45.0999 3.79023 45.6644 4.68717 45.7022L20.7689 46.3786L16.7384 50.4091C15.8548 51.2927 15.8548 52.7255 16.7384 53.6093L19.0909 55.9616L12.0645 66.7319C11.4798 67.6281 11.6027 68.8113 12.3596 69.5682L30.432 87.6404C31.1889 88.3971 32.3721 88.5206 33.2686 87.9355L44.0384 80.9089L46.3909 83.2614C47.2745 84.1448 48.7073 84.1448 49.5911 83.2614L53.6217 79.2308L54.298 95.3121C54.3358 96.2093 54.9003 96.9992 55.7368 97.3253C56.0038 97.4294 56.2821 97.4798 56.5582 97.4798C57.1474 97.4798 57.7262 97.2493 58.1586 96.8171L74.4617 80.514C74.8008 80.1748 75.0233 79.7368 75.0975 79.2632L79.0794 53.7731L86.1153 46.737C90.7801 42.0722 94.8469 35.5515 97.2727 28.8471C100.403 20.1947 100.848 11.2622 98.5593 3.01599ZM32.3336 83.1419L16.8581 67.6664L22.3612 59.2314L29.9648 66.835L29.0706 67.7293C28.1868 68.6129 28.1868 70.0456 29.0706 70.9294C29.9542 71.8128 31.3869 71.8128 32.2707 70.9294L33.165 70.0352L40.7686 77.6388L32.3336 83.1419ZM82.9149 43.5373L75.3572 51.0952C75.3563 51.0961 75.3554 51.097 75.3545 51.0979L67.4907 58.9617C66.6071 59.8453 66.6071 61.278 67.4907 62.1619C68.3743 63.0452 69.807 63.0452 70.6908 62.1619L73.6509 59.2018L70.74 77.8361L58.6028 89.9735L57.9683 74.8844L64.291 68.5617C65.1746 67.6781 65.1746 66.2454 64.291 65.3616C63.4074 64.4782 61.9747 64.4782 61.0909 65.3616L54.0717 72.3807C54.0679 72.3846 54.0642 72.3882 54.0604 72.392L47.9909 78.4613L45.9732 76.4436C45.9502 76.4199 45.9271 76.3966 45.9031 76.3737L36.3646 66.835L63.731 39.4689C64.6146 38.5853 64.6148 37.1526 63.731 36.2688C62.8476 35.3856 61.4149 35.3854 60.5311 36.2688L33.1647 63.6353L23.6258 54.0964C23.6032 54.0729 23.5801 54.0498 23.5564 54.027L21.5387 52.0091L27.6082 45.9396C27.612 45.936 27.6157 45.9324 27.6193 45.9285L34.6384 38.9094C35.5222 38.0258 35.5222 36.593 34.6384 35.7092C33.7551 34.8258 32.3221 34.8258 31.4385 35.7092L25.1158 42.0319L10.0267 41.3972L22.1639 29.26L40.7982 26.3493L37.8381 29.3091L41.0381 32.5093L48.8781 24.6692C48.8951 24.6527 48.9121 24.636 48.9286 24.6188L56.4625 17.0848C62.7592 10.7884 77.7102 1.45902 94.5219 5.47782C98.5407 22.2898 89.2114 37.2411 82.9149 43.5373Z" fill="#FFE500"/>
<path d="M23.8933 87.5015L15.2574 96.1374C14.3738 97.0209 14.3738 98.4537 15.2574 99.3375C15.6993 99.7792 16.2784 100 16.8574 100C17.4364 100 18.0157 99.7792 18.4573 99.3375L27.0932 90.7016C27.9768 89.8181 27.9768 88.3853 27.0932 87.5015C26.2098 86.6179 24.7771 86.6179 23.8933 87.5015Z" fill="#FFE500"/>
</g>
<circle opacity="0.2" cx="57.5" cy="50.5" r="50.5" fill="#FFE500"/>
<defs>
<clipPath id="clip0_418_8">
<rect width="100" height="100" fill="white"/>
</clipPath>
</defs>
</svg>
