<svg width="98" height="99" viewBox="0 0 98 99" fill="none" xmlns="http://www.w3.org/2000/svg">
<path d="M49 0C62.3924 0 74.5159 5.42947 83.2936 14.2064C92.0705 22.9833 97.5 35.1068 97.5 48.5C97.5 61.8932 92.0676 74.0159 83.2936 82.7936C74.5167 91.5705 62.3895 97 49 97C35.6076 97 23.4841 91.5676 14.7064 82.7936C5.92947 74.0167 0.5 61.8932 0.5 48.5C0.5 35.1068 5.92947 22.9841 14.7064 14.2064C23.4804 5.43239 35.6068 0 49 0ZM43.19 67.3917C45.0385 67.6495 46.6937 68.5099 47.9497 69.7658C49.0029 70.819 49.7769 72.1522 50.1518 73.6445H54.1747C54.4788 71.1169 54.7395 68.415 54.9487 65.568C53.6341 65.1596 52.4581 64.4377 51.5093 63.4888C50.4561 62.4356 49.6849 61.1024 49.3072 59.613H42.6859C42.8116 62.3156 42.9808 64.9169 43.1864 67.3945L43.19 67.3917ZM50.1518 77.7381C49.7769 79.2212 49.0029 80.5542 47.9497 81.6045L47.9375 81.6167C47.2099 82.3414 46.3531 82.9312 45.4042 83.3518C46.0769 86.4686 46.8294 88.9805 47.637 90.7435C48.2632 92.113 48.7302 92.8778 48.9851 92.9021H48.9973C49.7834 92.9021 50.8402 90.313 51.9883 85.9125C52.5931 83.5912 53.1429 80.8393 53.6156 77.7348H50.1482L50.1518 77.7381ZM41.3721 84.043C39.3206 83.883 37.475 82.9869 36.1026 81.6139C35.0494 80.5607 34.2782 79.2275 33.9005 77.7381H29.8869C30.3353 78.6257 30.8051 79.4825 31.2936 80.3058C34.6809 86.021 38.9587 90.1358 43.6969 91.9202C42.8372 89.8995 42.054 87.2312 41.3721 84.043ZM33.9034 73.6445C34.2783 72.1579 35.0523 70.8284 36.1055 69.7752C36.9595 68.9248 37.9877 68.255 39.1336 67.8315C38.9123 65.2024 38.7345 62.4542 38.6088 59.6108H24.3353C25.0972 64.6961 26.3652 69.4288 28.0482 73.6451H33.9047L33.9034 73.6445ZM45.0574 72.662C44.2834 71.888 43.2115 71.4089 42.0292 71.4089C40.8439 71.4089 39.7694 71.888 38.9953 72.6584C38.2241 73.4324 37.7457 74.507 37.7457 75.6924C37.7457 76.8748 38.2277 77.9495 38.9988 78.7205C39.7729 79.4945 40.8474 79.9765 42.0299 79.9765C43.218 79.9765 44.2897 79.4974 45.058 78.7298C45.8349 77.9529 46.314 76.8812 46.314 75.6924C46.314 74.5099 45.8349 73.4382 45.058 72.6613L45.0574 72.662ZM71.3209 12.9329C73.6272 12.9329 75.7187 13.8726 77.2351 15.3863C78.2912 16.4424 79.0653 17.7754 79.4429 19.265H82.4219C81.7707 18.5217 81.0981 17.7998 80.4011 17.1029C75.847 12.5489 70.3011 8.97728 64.1218 6.73881C66.0075 8.56892 67.7548 10.731 69.3336 13.1722C69.9727 13.0158 70.6388 12.933 71.3237 12.933L71.3209 12.9329ZM79.4466 23.3557C79.0717 24.8452 78.2977 26.1811 77.2445 27.2314C76.8425 27.6334 76.3969 27.999 75.9178 28.3125C76.7104 31.1686 77.3394 34.1655 77.7821 37.2643L77.8007 37.3872H92.0071C90.6961 32.299 88.5062 27.5636 85.6101 23.3529H79.4502L79.4466 23.3557ZM72.0577 29.6542C71.815 29.6756 71.5693 29.6849 71.3209 29.6849C69.0082 29.6849 66.9139 28.7452 65.3973 27.2314C64.3441 26.1782 63.573 24.8451 63.1952 23.3557H58.2876C58.791 27.6242 59.1723 32.3503 59.3994 37.3899H73.6699C73.2679 34.6994 72.7275 32.1111 72.0577 29.6542ZM63.198 19.2621C63.5729 17.7755 64.3469 16.446 65.4001 15.3927C65.5015 15.2913 65.6057 15.1928 65.7135 15.095C63.5458 11.7969 61.0609 9.12207 58.3648 7.23639C57.0138 6.29387 55.6042 5.54413 54.1512 5.01583C55.3215 7.59557 56.3162 11.0809 57.0931 15.2851C57.3266 16.5411 57.5444 17.8707 57.75 19.2623H63.2009L63.198 19.2621ZM74.3547 18.276C73.5807 17.5048 72.5061 17.0264 71.3207 17.0264C70.1754 17.0264 69.0943 17.472 68.2868 18.276C67.5156 19.05 67.0372 20.1246 67.0372 21.31C67.0372 22.4924 67.5192 23.5671 68.2903 24.3381C69.0643 25.1121 70.1389 25.5941 71.3214 25.5941C72.5039 25.5941 73.5756 25.115 74.3524 24.3381C75.1265 23.5641 75.6056 22.4923 75.6056 21.31C75.6056 20.1247 75.1265 19.0501 74.356 18.276H74.3547ZM59.6385 49.4804C61.0666 49.8674 62.344 50.6257 63.3607 51.6425C64.4139 52.6957 65.1879 54.0288 65.5628 55.5211H74.1611C74.3732 53.2362 74.4803 50.8936 74.4803 48.5043C74.4803 46.1088 74.3725 43.766 74.1611 41.4875H59.5498C59.6141 43.778 59.6448 46.1216 59.6448 48.5043L59.6355 49.484L59.6385 49.4804ZM65.5593 59.6111C65.1844 61.0942 64.4104 62.4272 63.3572 63.4775L63.3451 63.4897C62.1876 64.6442 60.6946 65.464 59.0337 65.7866C58.831 68.5386 58.5825 71.1669 58.2876 73.6425H69.9541C71.6371 69.4262 72.9053 64.6935 73.667 59.6083H65.5598L65.5593 59.6111ZM49.3107 55.5175C49.6856 54.0309 50.4596 52.7014 51.5128 51.6481C52.6089 50.5521 54.0034 49.7595 55.5571 49.4003L55.5635 48.5007C55.5635 46.1143 55.5264 43.7716 55.4622 41.4838H42.5488C42.4846 43.7716 42.4503 46.115 42.4503 48.5007C42.4503 50.9234 42.481 53.2668 42.5452 55.5175H49.3135L49.3107 55.5175ZM60.4647 54.535C59.6907 53.761 58.6189 53.2818 57.4366 53.2818C56.2513 53.2818 55.1767 53.761 54.4026 54.5314C53.6314 55.3054 53.1531 56.38 53.1531 57.5654C53.1531 58.7478 53.635 59.8225 54.4062 60.5935C55.1802 61.3675 56.2548 61.8495 57.4372 61.8495C58.6254 61.8495 59.6971 61.3704 60.4654 60.6028C61.2422 59.8259 61.7214 58.7542 61.7214 57.5653C61.7214 56.3829 61.2422 55.3111 60.4654 54.5343L60.4647 54.535ZM25.407 31.7829C26.3531 32.2034 27.2035 32.7932 27.9254 33.5151C28.9786 34.5683 29.7526 35.9015 30.1275 37.3938H38.603C38.83 32.3542 39.2113 27.6279 39.7147 23.3595H28.0418C26.9979 25.9822 26.1104 28.8012 25.407 31.7829ZM30.124 41.4836C29.7491 42.9667 28.9751 44.2997 27.9219 45.35L27.9098 45.3622C26.7338 46.5325 25.2192 47.3586 23.5242 47.6714L23.5214 48.4975C23.5214 50.8866 23.632 53.2302 23.8405 55.5144H38.4553C38.3875 53.1867 38.3539 50.8404 38.3539 48.4975C38.3539 46.1148 38.3846 43.7714 38.4489 41.4807H30.1205L30.124 41.4836ZM19.4371 47.4136C18.1532 47.0023 17.005 46.2897 16.0746 45.3594C15.0214 44.3062 14.2502 42.973 13.8725 41.4836H5.14493C4.78291 43.7685 4.59227 46.1112 4.59227 48.5005C4.59227 50.8868 4.78293 53.2331 5.14493 55.5173H19.7319C19.532 53.2267 19.4249 50.8832 19.4249 48.5005L19.4342 47.4137L19.4371 47.4136ZM13.8754 37.3871C14.2503 35.9005 15.0243 34.571 16.0775 33.5177C17.4656 32.1325 19.3206 31.2299 21.3814 31.0793C22.0076 28.3802 22.7788 25.7975 23.6756 23.3527H12.3961C9.49994 27.5626 7.3079 32.2981 5.99911 37.3869H13.8763L13.8754 37.3871ZM25.0294 36.4046C24.2554 35.6306 23.1836 35.1514 22.0013 35.1514C20.816 35.1514 19.7414 35.6306 18.9673 36.401C18.1961 37.175 17.7177 38.2496 17.7177 39.435C17.7177 40.6174 18.1997 41.6921 18.9709 42.4631C19.7449 43.2371 20.8194 43.7191 22.0019 43.7191C23.1901 43.7191 24.2618 43.24 25.0301 42.4724C25.8069 41.6955 26.286 40.6238 26.286 39.4349C26.286 38.2525 25.8069 37.1807 25.0301 36.4039L25.0294 36.4046ZM57.7473 77.7357C57.2282 81.2337 56.6235 84.3319 55.9444 86.9359C55.4439 88.8523 54.8755 90.5289 54.2493 91.9384C59.009 90.1662 63.3083 86.0419 66.7084 80.3054C67.1968 79.4792 67.6666 78.6224 68.115 77.7349H57.7473L57.7473 77.7357ZM40.2585 19.2623C40.4642 17.8714 40.6827 16.5448 40.9154 15.2852C41.6923 11.0873 42.6841 7.60149 43.8544 5.02522C40.5135 6.24408 37.396 8.62458 34.657 11.907C32.8941 14.0169 31.2946 16.4888 29.888 19.2622L40.2585 19.2623ZM55.3089 37.3902C55.0754 32.3234 54.6884 27.5909 54.1757 23.356H43.8266C43.3139 27.5909 42.9269 32.3199 42.6963 37.3902H55.3089ZM53.6202 19.2623C53.4481 18.1356 53.2668 17.0509 53.0732 16.0192C51.7095 8.65182 50.2422 4.095 49.0012 4.095C47.7574 4.095 46.2929 8.652 44.9291 16.0192C44.7385 17.051 44.5579 18.1321 44.3822 19.2623H53.6202ZM78.2679 41.4844C78.4707 43.7813 78.5749 46.1249 78.5749 48.5012C78.5749 50.8839 78.4707 53.2273 78.2679 55.518H92.8548C93.2169 53.2331 93.4075 50.8905 93.4075 48.5012C93.4075 46.1121 93.2169 43.7685 92.8548 41.4844H78.2679ZM77.8009 59.6122C77.0883 64.639 75.903 69.3623 74.3308 73.6464H85.6074C88.5035 69.4365 90.6926 64.701 92.0044 59.6122H77.8009ZM72.6478 77.74C71.8988 79.3766 71.0905 80.9276 70.2251 82.3892C68.4221 85.4323 66.3744 88.0828 64.1323 90.2628C70.3079 88.0243 75.8481 84.4555 80.4022 79.9014C81.0991 79.2045 81.7746 78.4826 82.423 77.7393H72.6478V77.74ZM33.874 90.2635C31.6291 88.0828 29.5806 85.433 27.7782 82.3863C26.9121 80.9275 26.1045 79.3738 25.3555 77.74H15.5803C16.2315 78.4834 16.9042 79.2052 17.6011 79.9021C22.1552 84.4562 27.6954 88.025 33.8738 90.2635H33.874ZM23.6725 73.6466C22.1002 69.366 20.9149 64.6399 20.2024 59.6124H5.99601C7.30697 64.7006 9.49684 69.4333 12.393 73.6466H23.6725ZM25.3584 19.266C27.1028 15.4552 29.182 12.0892 31.5219 9.28519C32.2774 8.37909 33.0635 7.52867 33.8739 6.74255C27.6983 8.98102 22.158 12.5499 17.604 17.1039C16.9071 17.8008 16.2345 18.5227 15.5832 19.266H25.3611H25.3584Z" fill="#FFE500"/>
<circle opacity="0.2" cx="47.75" cy="59.5" r="39.5" fill="#FFE500"/>
</svg>
