<svg width="100" height="99" viewBox="0 0 100 99" fill="none" xmlns="http://www.w3.org/2000/svg">
<ellipse opacity="0.2" cx="60.25" cy="60" rx="39.5" ry="39" fill="#FFE500"/>
<path d="M94.6289 38.6876L91.0055 34.4434C89.8668 33.0975 89.2459 31.545 89.1426 29.8886L88.6249 24.1959C88.0039 16.329 81.8969 10.2211 74.1333 9.70426L68.5439 9.29052C66.8876 9.18727 65.2311 8.46232 63.9891 7.42764L59.7449 3.80428C53.7411 -1.26809 45.1492 -1.26809 39.1456 3.80428L34.9013 7.42764C33.5554 8.56633 32.0029 9.18728 30.3465 9.29052L24.5499 9.60029C16.683 10.2213 10.5752 16.3283 9.95426 24.0919L9.54052 29.6813C9.43727 31.3377 8.71232 32.9941 7.67764 34.2361L4.05428 38.4803C-1.01809 44.4841 -1.01809 53.076 4.05428 59.0796L7.67764 63.3239C8.81633 64.6698 9.43729 66.2223 9.54052 67.8787L9.95426 73.7786C10.5752 81.6455 16.6823 87.7534 24.4459 88.2702L30.0352 88.6839C31.6916 88.7872 33.3481 89.5121 34.59 90.5468L38.8343 94.1702C41.8358 96.758 45.4592 98 49.0824 98C52.7057 98 56.4322 96.7581 59.3305 94.1702L63.5747 90.5468C64.9206 89.4081 66.4731 88.7872 68.1295 88.6839L73.7189 88.2702C81.5858 87.6492 87.6936 81.5422 88.3146 73.7786L88.7283 68.1892C88.8316 66.5328 89.5565 64.8764 90.5912 63.6344L94.2145 59.3902C99.7008 53.283 99.7007 44.5883 94.6289 38.6876ZM88.7282 54.1114L85.1048 58.3557C82.9307 60.9435 81.5856 64.0491 81.3783 67.4651L80.9646 73.0545C80.6541 76.9882 77.5486 80.0931 73.6147 80.4043L68.0253 80.8181C64.7125 81.1286 61.5038 82.3705 58.9159 84.5446L54.4652 88.3744C51.4637 90.9623 47.0122 90.9623 44.0105 88.3744L39.7662 84.7511C37.1784 82.5769 34.0727 81.2318 30.6568 81.0245L25.0674 80.6108C21.1337 80.3003 18.0288 77.1948 17.7175 73.2609L17.3038 67.6716C16.9933 64.3587 15.7514 61.15 13.5773 58.5621L9.85079 54.1114C7.26294 51.1099 7.26294 46.6584 9.85079 43.6567L13.4741 39.4124C15.6483 36.8246 16.9934 33.719 17.2006 30.303L17.6144 24.7136C17.9249 20.7799 21.0304 17.675 24.9643 17.3637L30.5536 16.95C33.8665 16.6395 37.0752 15.3976 39.6631 13.2235L43.9073 9.60014C45.4597 8.35819 47.2201 7.63319 49.083 7.63319C50.9459 7.63319 52.8095 8.25416 54.2587 9.60014L58.503 13.2235C61.0908 15.3977 64.1964 16.7428 67.6124 16.95L73.2018 17.3637C77.1355 17.6742 80.2404 20.7797 80.5517 24.7136L80.9654 30.303C81.2759 33.6158 82.5178 36.8246 84.6919 39.4124L88.3153 43.6567C91.3161 46.7615 91.316 51.1097 88.7282 54.1114Z" fill="#FFE500"/>
<path d="M51.0495 45.6234H47.4261C44.631 45.6234 42.4576 43.2428 42.7682 40.4477C42.9754 37.9632 45.2527 36.2035 47.7367 36.2035H51.8768C53.4293 36.2035 54.7752 37.3421 55.0856 38.7913C55.1888 39.205 55.6033 39.5163 56.0171 39.5163H60.7791C61.2968 39.5163 61.8145 39.1025 61.7105 38.4808C61.1928 33.7188 57.3629 29.9923 52.4978 29.6818V24.9197C52.4978 24.402 52.084 23.9883 51.5663 23.9883H46.8043C46.2866 23.9883 45.8728 24.402 45.8728 24.9197V29.6818C39.9722 30.51 35.5214 35.7889 36.1423 42.0001C36.7633 47.9008 42.043 52.1443 47.9429 52.1443H51.0485C53.8436 52.1443 56.017 54.5249 55.7065 57.32C55.4993 59.8045 53.222 61.5643 50.738 61.5643H46.5978C45.0454 61.5643 43.6994 60.4256 43.3891 58.9764C43.2858 58.5627 42.8713 58.2515 42.4576 58.2515H37.6956C37.1779 58.2515 36.6602 58.6652 36.7641 59.2869C37.2818 64.0489 41.1117 67.7754 45.9769 68.086V72.848C45.9769 73.3657 46.3906 73.7794 46.9083 73.7794H51.6704C52.1881 73.7794 52.6018 73.3657 52.6018 72.848V67.9828C57.6742 67.1546 61.8146 63.2208 62.3323 57.9419C62.954 51.317 57.6744 45.6234 51.0495 45.6234Z" fill="#FFE500"/>
</svg>
