<svg width="94" height="101" viewBox="0 0 94 101" fill="none" xmlns="http://www.w3.org/2000/svg">
<circle opacity="0.2" cx="43.8545" cy="57.5" r="43.5" fill="#FFE500"/>
<path d="M61.6788 85.7939C58.0564 88.0795 54.4454 90.3649 50.8229 92.6502C50.3087 92.9702 49.7944 93.3016 49.2802 93.6216H52.7426C49.0288 91.2789 45.3148 88.9248 41.601 86.5822C41.1325 86.2851 40.664 85.9994 40.2069 85.7023C39.2812 85.1081 38.3671 84.491 37.4758 83.8511C37.053 83.5539 36.6416 83.234 36.2302 82.9254C35.6931 82.5255 36.9044 83.4511 36.3788 83.0397C36.2874 82.9712 36.1959 82.9026 36.1045 82.8226C35.8531 82.6283 35.6131 82.434 35.3732 82.2283C33.6705 80.8456 32.0593 79.36 30.5279 77.7832C29.7622 76.9947 29.008 76.172 28.2881 75.3378C27.9338 74.9264 27.591 74.5264 27.2482 74.1036C27.0882 73.9094 26.9282 73.7037 26.7682 73.5094C26.6768 73.3951 26.5968 73.2923 26.5054 73.178C26.1397 72.7095 27.0082 73.8408 26.6311 73.338C23.6714 69.4299 21.1917 65.1903 19.2833 60.6651C19.3976 60.9394 19.5119 61.2137 19.6261 61.4879C17.672 56.8257 16.335 51.9346 15.6494 46.9409C15.6952 47.2495 15.7294 47.5466 15.7751 47.8551C15.1923 43.4785 15.2495 39.1017 15.2495 34.7023V15.7672L11.8213 19.1954C24.3801 18.1783 36.6079 14.7272 47.8289 9.00222C49.4858 8.15659 51.1085 7.2424 52.7427 6.35097H49.2803C53.4628 8.64783 57.6793 10.7961 62.1017 12.5902C67.7239 14.8871 73.5747 16.6127 79.5398 17.7554C83.0595 18.4297 86.6362 18.9096 90.213 19.2067L86.7848 15.7786V39.2961C86.7848 42.1644 86.6477 45.0098 86.2591 47.8552C86.3049 47.5466 86.3391 47.2495 86.3848 46.941C85.6992 51.9462 84.3622 56.837 82.4082 61.488C82.5224 61.2137 82.6367 60.9395 82.751 60.6652C81.0026 64.8134 78.7743 68.7558 76.1118 72.3896C75.9632 72.5953 75.8147 72.801 75.6547 72.9952C75.5747 73.1095 75.4833 73.2238 75.4033 73.3266C75.0833 73.7494 75.6204 73.0524 75.6319 73.0295C75.289 73.5095 74.8891 73.9666 74.512 74.4122C73.8035 75.2579 73.0836 76.092 72.3294 76.8919C70.7753 78.5603 69.1299 80.126 67.3928 81.5999C66.9128 82.0113 66.4215 82.3998 65.9301 82.7998C65.8158 82.8912 65.7015 82.9712 65.5873 83.0626C65.3816 83.2226 65.4958 83.1312 65.9415 82.7884L65.6673 82.9941C65.4387 83.1655 65.2102 83.3369 64.9702 83.5083C63.896 84.3311 62.7989 85.0853 61.6791 85.7939C60.1707 86.7538 59.4165 88.8906 60.445 90.4791C61.4163 91.9989 63.5189 92.7417 65.1302 91.7133C71.8267 87.4737 77.5747 82.0114 82.2254 75.5893C86.6135 69.5214 89.8589 62.5508 91.7102 55.2943C93.0929 49.8892 93.63 44.3583 93.63 38.7931V26.2916C93.63 22.852 93.6643 19.4008 93.63 15.9499V15.7785C93.63 13.813 92.053 12.4989 90.2019 12.3504C88.6363 12.2247 87.0708 12.0532 85.5051 11.8476C85.8137 11.8933 86.1108 11.9276 86.4193 11.9733C78.2944 10.8762 70.3411 8.70496 62.7883 5.5169L63.6111 5.85971C60.24 4.4313 56.9947 2.77425 53.7836 1.00313C53.4408 0.80886 53.098 0.60316 52.7437 0.431752C51.5553 -0.162481 50.3668 -0.139621 49.2013 0.477462C49.0184 0.568881 48.847 0.671728 48.6642 0.774579C47.5329 1.39165 46.4131 2.02015 45.2816 2.61439C43.0418 3.7914 40.7449 4.86548 38.4253 5.8597L39.248 5.51689C31.6947 8.70516 23.7411 10.8762 15.6171 11.9733C15.9256 11.9275 16.2227 11.8933 16.5313 11.8476C14.9657 12.0532 13.4002 12.2247 11.8345 12.3503C9.98328 12.4989 8.40636 13.8016 8.40636 15.7785V28.7942C8.40636 33.4222 8.25781 38.0847 8.4635 42.7014C8.9206 52.6662 11.7888 62.4706 16.8513 71.0632C21.7879 79.428 28.7242 86.5244 36.9291 91.7123C40.9173 94.2378 44.9169 96.7633 48.9049 99.2772C49.0306 99.3572 49.1677 99.4372 49.2934 99.5286C50.2876 100.157 51.7504 100.157 52.7559 99.5286C56.3783 97.243 59.9893 94.9577 63.6118 92.6723C64.126 92.3524 64.6403 92.021 65.1545 91.701C66.6743 90.7411 67.4171 88.6043 66.3887 87.0158C65.3945 85.5073 63.3032 84.7647 61.6806 85.793L61.6788 85.7939Z" fill="#FFE500"/>
<path d="M29.9696 48.3801C33.6492 52.0596 37.3402 55.7507 41.0199 59.4304C41.5456 59.956 42.0712 60.4817 42.5969 61.0074C43.9111 62.3215 46.1279 62.3215 47.4422 61.0074L55.807 52.6426C60.2179 48.2317 64.6175 43.8321 69.0283 39.4212L72.0453 36.4043C73.3137 35.1359 73.4051 32.8046 72.0453 31.559C70.674 30.302 68.5486 30.1992 67.2 31.559L58.8352 39.9238C54.4243 44.3347 50.0247 48.7343 45.6138 53.1451L42.5969 56.1621H47.4422C43.7627 52.4825 40.0717 48.7915 36.3919 45.1118C35.8663 44.5861 35.3406 44.0605 34.8149 43.5348C33.5465 42.2664 31.2152 42.1749 29.9696 43.5348C28.7126 44.8946 28.6212 47.0202 29.9696 48.3801Z" fill="#FFE500"/>
</svg>
